if (_typeface_js && _typeface_js.loadFace) _typeface_js.loadFace({"glyphs":{"0":{"ha":636,"x_min":41,"x_max":593,"o":"m 593 400 q 557 185 593 278 q 457 38 522 92 q 318 -16 392 -16 q 177 38 243 -16 q 77 185 112 92 q 41 403 41 279 q 77 616 41 523 q 178 762 113 709 q 318 815 243 815 q 458 762 393 815 q 557 615 522 708 q 593 400 593 522 m 488 400 q 444 680 488 580 q 318 779 400 779 q 192 679 236 779 q 147 400 147 578 q 192 121 147 221 q 318 21 237 21 q 444 119 399 21 q 488 400 488 218 z "},"1":{"ha":636,"x_min":160,"x_max":453,"o":"m 279 109 l 279 654 q 268 682 279 682 q 250 677 265 682 q 160 654 198 656 l 160 677 q 347 812 312 758 l 371 812 l 371 109 q 386 37 371 54 q 453 21 401 21 l 453 0 l 197 0 l 197 21 q 264 38 249 21 q 279 109 279 55 z "},"2":{"ha":636,"x_min":81,"x_max":536,"o":"m 144 57 l 536 57 l 536 0 l 81 0 l 81 28 q 344 338 267 220 q 421 555 421 456 q 382 690 421 641 q 275 739 343 739 q 175 701 215 739 q 129 595 136 663 l 106 595 q 137 699 106 644 q 214 785 167 754 q 317 815 260 815 q 459 751 401 815 q 518 593 518 688 q 433 362 518 485 q 144 57 348 240 z "},"3":{"ha":636,"x_min":90,"x_max":539,"o":"m 167 404 l 167 428 q 411 629 411 471 q 372 728 411 688 q 275 768 333 768 q 200 746 235 768 q 147 685 166 724 l 125 694 q 195 783 144 750 q 311 815 245 815 q 449 764 394 815 q 504 637 504 713 q 468 530 504 578 q 363 453 431 481 l 363 450 q 492 370 446 429 q 539 231 539 312 q 469 53 539 121 q 289 -16 399 -16 q 183 4 228 -16 q 90 72 138 24 l 107 89 q 264 24 187 24 q 390 71 340 24 q 440 193 440 117 q 387 342 440 276 q 248 408 333 408 l 167 404 z "},"4":{"ha":636,"x_min":8,"x_max":615,"o":"m 615 262 l 419 262 l 419 -11 l 336 -11 l 336 262 l 8 262 l 8 286 l 396 815 l 419 815 l 419 326 l 615 326 l 615 262 m 86 328 l 336 328 l 336 667 l 86 328 z "},"5":{"ha":636,"x_min":64,"x_max":522,"o":"m 515 721 l 216 721 l 208 439 q 271 444 241 444 q 454 380 386 444 q 522 221 522 316 q 453 52 522 119 q 279 -16 384 -16 q 64 98 148 -16 l 85 111 q 239 32 149 32 q 367 83 315 32 q 419 208 419 134 q 365 330 419 283 q 218 377 311 377 q 165 374 193 377 l 178 795 l 515 795 l 515 721 z "},"6":{"ha":636,"x_min":60,"x_max":578,"o":"m 571 817 l 571 793 q 287 647 393 761 q 165 359 181 534 q 361 447 259 447 q 517 384 456 447 q 578 221 578 320 q 506 53 578 121 q 329 -16 435 -16 q 136 73 212 -16 q 60 297 60 161 q 203 650 60 505 q 571 817 347 795 m 482 196 q 438 334 482 282 q 319 386 393 386 q 165 318 239 386 l 165 309 q 214 98 165 176 q 343 21 263 21 q 443 70 404 21 q 482 196 482 119 z "},"7":{"ha":636,"x_min":46,"x_max":596,"o":"m 69 618 l 46 618 l 89 822 l 113 822 q 130 800 120 804 q 157 795 140 795 l 596 795 l 596 768 l 322 -11 l 222 -11 l 530 718 l 182 718 q 125 700 146 718 q 69 618 105 682 z "},"8":{"ha":636,"x_min":81,"x_max":543,"o":"m 543 199 q 475 46 543 109 q 309 -16 408 -16 q 144 39 208 -16 q 81 179 81 94 q 121 296 81 244 q 254 399 162 347 q 142 493 181 437 q 103 618 103 550 q 162 760 103 705 q 317 815 222 815 q 465 763 406 815 q 524 633 524 711 q 386 443 524 519 q 543 199 543 334 m 178 663 q 220 564 178 610 q 361 460 262 517 q 452 616 452 507 q 412 738 452 692 q 307 785 372 785 q 215 750 252 785 q 178 663 178 715 m 158 196 q 204 73 158 123 q 318 24 250 24 q 420 63 380 24 q 461 161 461 102 q 279 375 461 279 q 158 196 158 318 z "},"9":{"ha":636,"x_min":60,"x_max":578,"o":"m 66 -14 l 66 9 q 350 152 238 33 q 473 443 461 271 q 277 355 380 355 q 121 419 182 355 q 60 581 60 483 q 132 748 60 680 q 310 815 203 815 q 502 727 427 815 q 578 504 578 640 q 432 151 578 296 q 66 -14 287 5 m 155 606 q 200 467 155 519 q 319 415 245 415 q 473 490 400 415 q 425 702 473 625 q 296 779 376 779 q 195 730 234 779 q 155 606 155 682 z "}," ":{"ha":313,"x_min":0,"x_max":0,"o":""},"!":{"ha":406,"x_min":136,"x_max":268,"o":"m 257 689 l 215 192 l 193 192 l 157 689 q 153 770 153 752 q 168 821 153 801 q 207 840 183 840 q 248 821 232 840 q 264 770 264 802 q 259 711 264 753 l 257 689 m 203 115 q 249 96 230 115 q 268 50 268 77 q 249 3 268 22 q 203 -17 230 -17 q 156 3 176 -17 q 136 50 136 23 q 156 96 136 77 q 203 115 176 115 z "},"\"":{"ha":567,"x_min":113,"x_max":453,"o":"m 444 718 l 407 498 l 382 498 l 345 718 q 336 794 336 763 q 352 841 336 823 q 395 859 368 859 q 437 841 420 859 q 453 794 453 823 q 444 718 453 760 m 221 718 l 183 498 l 158 498 l 121 718 q 113 794 113 763 q 129 841 113 823 q 171 859 145 859 q 213 841 197 859 q 229 794 229 823 q 221 718 229 763 z "},"#":{"ha":928,"x_min":65,"x_max":863,"o":"m 65 585 l 65 644 l 292 644 l 351 926 l 411 926 l 351 644 l 661 644 l 721 926 l 781 926 l 721 644 l 863 644 l 863 585 l 708 585 l 648 310 l 863 310 l 863 250 l 636 250 l 576 -32 l 517 -32 l 576 250 l 267 250 l 207 -32 l 147 -32 l 207 250 l 65 250 l 65 310 l 220 310 l 279 585 l 65 585 m 648 585 l 339 585 l 279 310 l 589 310 l 648 585 z "},"$":{"ha":636,"x_min":121,"x_max":505,"o":"m 292 747 l 315 747 l 315 696 q 469 647 399 694 l 449 505 l 425 505 q 426 528 426 517 q 397 626 426 588 q 315 671 368 663 l 315 419 q 464 295 422 347 q 505 182 505 243 q 453 53 505 110 q 315 -7 401 -3 l 315 -150 l 292 -150 l 292 -7 q 121 49 195 -5 l 151 204 l 175 204 q 174 170 174 186 q 292 21 174 38 l 292 322 q 175 423 209 376 q 140 532 140 471 q 179 641 140 598 q 292 696 218 683 l 292 747 m 292 436 l 292 671 q 227 637 250 665 q 204 568 204 610 q 224 496 204 526 q 292 436 244 466 m 315 304 l 315 21 q 398 62 366 22 q 429 151 429 102 q 315 304 429 237 z "},"%":{"ha":1042,"x_min":40,"x_max":1002,"o":"m 309 591 q 282 729 309 679 q 211 779 256 779 q 139 729 165 779 q 114 586 114 679 q 140 453 114 502 q 211 404 166 404 q 282 454 256 404 q 309 591 309 504 m 382 591 q 333 432 382 495 q 211 368 284 368 q 89 432 137 368 q 40 591 40 495 q 89 752 40 688 q 211 815 137 815 q 333 752 285 815 q 382 591 382 688 m 786 815 l 833 815 l 256 0 l 208 0 l 786 815 m 1002 216 q 953 57 1002 121 q 831 -7 904 -7 q 708 56 757 -7 q 660 216 660 119 q 708 377 660 313 q 831 440 757 440 q 953 376 904 440 q 1002 216 1002 313 m 928 216 q 902 354 928 304 q 831 404 876 404 q 759 354 784 404 q 733 211 733 304 q 760 78 733 127 q 831 29 786 29 q 902 79 876 29 q 928 216 928 129 z "},"&":{"ha":854,"x_min":58,"x_max":808,"o":"m 143 576 q 196 707 143 656 q 332 758 250 758 q 445 716 398 758 q 492 614 492 673 q 349 437 492 513 q 553 218 432 366 q 611 385 611 318 q 598 436 611 422 q 553 453 586 451 l 553 476 l 779 476 l 779 453 q 707 438 726 453 q 673 400 688 423 q 636 320 659 377 q 574 191 605 238 q 683 65 651 93 q 736 37 714 37 q 790 65 760 37 l 808 50 q 682 -20 761 -20 q 617 -2 648 -20 q 540 68 587 15 q 511 100 521 90 q 281 -20 413 -20 q 123 38 188 -20 q 58 178 58 95 q 103 297 58 239 q 232 401 149 355 q 143 576 143 484 m 211 621 q 243 540 211 585 q 328 454 275 495 q 419 604 419 507 q 390 686 419 654 q 314 718 361 718 q 240 691 269 718 q 211 621 211 663 m 154 227 q 211 99 154 157 q 338 41 268 41 q 416 61 380 41 q 493 126 452 81 q 253 380 363 287 q 181 314 209 357 q 154 227 154 271 z "},"'":{"ha":250,"x_min":66,"x_max":183,"o":"m 175 718 l 138 498 l 113 498 l 75 718 q 66 794 66 760 q 83 841 66 823 q 125 859 99 859 q 167 841 151 859 q 183 794 183 823 q 175 718 183 763 z "},"(":{"ha":435,"x_min":77,"x_max":392,"o":"m 392 -292 l 378 -310 q 157 -39 237 -185 q 77 241 77 108 q 163 533 77 376 q 378 795 249 689 l 392 778 q 229 533 279 656 q 179 249 179 409 q 228 -45 179 79 q 392 -292 276 -170 z "},")":{"ha":435,"x_min":43,"x_max":358,"o":"m 43 778 l 58 795 q 278 526 199 672 q 358 244 358 379 q 269 -53 358 106 q 58 -310 180 -212 l 43 -292 q 206 -47 156 -171 q 256 237 256 77 q 206 539 256 413 q 43 778 156 665 z "},"*":{"ha":636,"x_min":72,"x_max":566,"o":"m 72 401 q 95 449 72 431 q 194 485 119 467 q 290 519 267 503 q 190 557 262 538 q 97 593 118 576 q 75 639 75 611 q 115 681 75 681 q 162 667 138 681 q 228 607 186 652 q 304 546 278 553 q 286 648 304 591 q 271 726 271 694 q 285 774 271 755 q 319 794 299 794 q 355 775 342 794 q 368 725 368 757 q 352 649 368 698 q 332 546 332 588 q 417 613 366 557 q 474 665 454 653 q 517 677 495 677 q 551 666 536 677 q 566 639 566 654 q 545 593 566 610 q 454 557 525 576 q 346 519 380 538 q 467 478 400 493 q 541 444 519 466 q 562 399 562 422 q 550 370 562 382 q 521 358 538 358 q 475 372 499 358 q 403 431 450 386 q 332 490 356 475 q 351 376 332 450 q 366 306 366 326 q 351 261 366 280 q 315 241 336 241 q 282 259 296 241 q 268 302 268 277 q 284 382 268 331 q 304 490 304 446 q 221 421 269 472 q 163 372 184 383 q 121 361 143 361 q 85 372 99 361 q 72 401 72 383 z "},"+":{"ha":926,"x_min":98,"x_max":828,"o":"m 98 414 l 98 473 l 433 473 l 433 808 l 493 808 l 493 473 l 828 473 l 828 414 l 493 414 l 493 79 l 433 79 l 433 414 l 98 414 z "},",":{"ha":406,"x_min":122,"x_max":292,"o":"m 122 -239 l 122 -215 q 198 -153 176 -187 q 220 -60 220 -118 q 215 -39 220 -44 q 195 -35 211 -35 q 143 -15 164 -35 q 122 32 122 4 q 142 78 122 59 q 189 97 161 97 q 263 60 235 97 q 292 -36 292 22 q 244 -165 292 -109 q 122 -239 197 -221 z "},"-":{"ha":435,"x_min":81,"x_max":353,"o":"m 81 271 l 353 271 l 353 218 l 81 218 l 81 271 z "},".":{"ha":406,"x_min":136,"x_max":268,"o":"m 203 97 q 249 78 230 97 q 268 32 268 59 q 249 -15 268 5 q 203 -35 229 -35 q 156 -15 176 -35 q 136 32 136 5 q 156 78 136 58 q 203 97 176 97 z "},"/":{"ha":694,"x_min":113,"x_max":582,"o":"m 113 -17 l 518 827 l 582 827 l 176 -17 l 113 -17 z "},":":{"ha":406,"x_min":136,"x_max":268,"o":"m 203 456 q 249 436 230 456 q 268 390 268 417 q 249 343 268 363 q 203 323 229 323 q 156 343 176 323 q 136 390 136 363 q 156 436 136 417 q 203 456 176 456 m 203 97 q 249 78 230 97 q 268 32 268 59 q 249 -15 268 5 q 203 -35 229 -35 q 156 -15 176 -35 q 136 32 136 5 q 156 78 136 58 q 203 97 176 97 z "},";":{"ha":406,"x_min":122,"x_max":292,"o":"m 122 -239 l 122 -215 q 198 -154 176 -189 q 220 -60 220 -119 q 215 -39 220 -44 q 195 -35 211 -35 q 143 -15 164 -35 q 122 32 122 4 q 142 78 122 59 q 189 97 161 97 q 263 60 235 97 q 292 -36 292 22 q 244 -165 292 -109 q 122 -239 197 -221 m 203 456 q 249 436 230 456 q 268 390 268 417 q 249 343 268 363 q 203 323 229 323 q 156 343 176 323 q 136 390 136 363 q 156 436 136 417 q 203 456 176 456 z "},"<":{"ha":926,"x_min":98,"x_max":828,"o":"m 828 113 l 98 419 l 98 472 l 828 779 l 828 714 l 178 446 l 828 178 l 828 113 z "},"=":{"ha":926,"x_min":98,"x_max":828,"o":"m 98 575 l 98 635 l 828 635 l 828 575 l 98 575 m 98 261 l 98 321 l 828 321 l 828 261 l 98 261 z "},">":{"ha":926,"x_min":98,"x_max":828,"o":"m 828 472 l 828 419 l 98 113 l 98 178 l 749 446 l 98 714 l 98 779 l 828 472 z "},"?":{"ha":435,"x_min":77,"x_max":393,"o":"m 195 208 l 195 165 l 168 165 l 168 319 q 188 393 168 359 q 268 475 207 427 q 339 547 322 519 q 355 606 355 574 q 315 684 355 654 q 210 714 275 714 q 141 703 169 714 q 77 661 114 692 l 77 693 q 218 775 132 775 q 343 712 292 775 q 393 557 393 648 q 373 457 393 498 q 288 367 353 416 q 212 288 230 322 q 195 208 195 254 m 193 115 q 239 96 220 115 q 258 50 258 77 q 239 3 258 22 q 193 -17 220 -17 q 146 3 166 -17 q 126 50 126 22 q 146 96 126 77 q 193 115 165 115 z "},"@":{"ha":1279,"x_min":72,"x_max":1249,"o":"m 737 208 l 734 211 q 596 64 656 109 q 479 18 536 18 q 384 61 420 18 q 347 174 347 103 q 406 384 347 275 q 558 571 465 493 q 721 648 651 648 q 799 627 772 648 q 839 554 825 606 l 842 554 l 857 632 l 949 644 l 811 167 q 804 121 804 141 q 867 57 804 57 q 1003 122 931 57 q 1117 286 1075 186 q 1158 496 1158 385 q 1036 809 1158 690 q 714 928 913 928 q 414 842 547 928 q 203 601 281 756 q 126 269 126 445 q 196 -3 126 122 q 387 -198 265 -129 q 664 -267 508 -267 q 998 -163 848 -267 q 1211 111 1149 -59 l 1249 111 q 1022 -190 1182 -77 q 663 -302 862 -302 q 238 -132 404 -302 q 72 306 72 39 q 156 638 72 487 q 389 876 241 789 q 714 962 537 962 q 1062 834 932 962 q 1192 492 1192 707 q 1142 256 1192 366 q 1007 78 1092 146 q 833 11 922 11 q 721 107 721 11 q 737 208 721 121 m 528 92 q 654 159 586 92 q 769 327 723 227 q 815 513 815 428 q 790 590 815 563 q 718 618 764 618 q 598 548 663 618 q 488 374 533 478 q 443 187 443 270 q 466 118 443 144 q 528 92 489 92 z "},"A":{"ha":825,"x_min":31,"x_max":794,"o":"m 514 0 l 514 24 q 583 71 583 24 q 576 102 583 85 l 504 322 l 248 322 l 193 163 q 173 75 173 102 q 236 24 173 25 l 236 0 l 31 0 l 31 24 q 99 53 75 30 q 149 149 123 76 l 368 804 l 450 804 l 681 119 q 723 41 701 59 q 794 24 745 24 l 794 0 l 514 0 m 262 371 l 486 371 l 374 708 l 262 371 z "},"B":{"ha":708,"x_min":49,"x_max":671,"o":"m 415 0 l 49 0 l 49 24 q 119 51 100 24 q 139 150 139 79 l 139 646 q 120 745 139 718 q 49 772 102 772 l 49 795 l 349 795 q 551 742 477 795 q 625 602 625 689 q 465 421 625 473 l 465 418 q 613 337 556 399 q 671 195 671 275 q 601 53 671 106 q 415 0 530 0 m 244 765 l 244 428 l 326 428 q 463 473 412 428 q 514 595 514 518 q 464 720 514 675 q 323 765 414 765 l 244 765 m 319 397 l 244 397 l 244 164 q 261 59 244 87 q 326 31 278 31 l 392 31 q 505 77 461 31 q 549 201 549 123 q 486 344 549 290 q 319 397 423 397 z "},"C":{"ha":854,"x_min":85,"x_max":808,"o":"m 783 807 l 783 570 l 760 570 q 668 732 731 680 q 501 785 606 785 q 286 687 366 785 q 207 427 207 589 q 291 139 207 248 q 510 31 374 31 q 787 205 698 31 l 808 186 q 679 36 768 91 q 476 -20 590 -20 q 276 31 368 -20 q 135 171 184 82 q 85 376 85 260 q 201 691 85 566 q 496 815 318 815 q 647 794 555 815 q 718 782 699 782 q 761 807 749 782 l 783 807 z "},"D":{"ha":926,"x_min":43,"x_max":860,"o":"m 43 0 l 43 24 q 114 52 94 24 q 134 150 134 80 l 134 646 q 114 745 134 717 q 43 772 94 772 l 43 795 l 411 795 q 738 680 615 795 q 860 385 860 564 q 744 104 860 209 q 421 0 628 0 l 43 0 m 390 765 l 239 765 l 239 178 q 259 62 239 93 q 340 31 279 31 l 422 31 q 653 125 569 31 q 737 383 737 220 q 645 661 737 557 q 390 765 553 765 z "},"E":{"ha":708,"x_min":47,"x_max":657,"o":"m 551 494 l 575 494 l 575 301 l 551 301 q 520 365 538 352 q 440 378 502 378 l 243 378 l 243 93 q 256 51 243 63 q 301 39 269 39 l 440 39 q 543 47 515 39 q 591 77 572 55 q 633 149 611 99 l 657 149 l 621 0 l 47 0 l 47 24 q 119 51 101 24 q 138 149 138 79 l 138 646 q 119 745 138 718 q 47 772 100 772 l 47 795 l 621 795 l 621 663 l 606 663 q 571 738 593 720 q 472 757 548 757 l 243 757 l 243 416 l 465 416 q 527 433 511 416 q 551 494 544 449 z "},"F":{"ha":636,"x_min":49,"x_max":595,"o":"m 454 385 l 244 385 l 244 150 q 264 51 244 79 q 335 24 283 24 l 335 0 l 49 0 l 49 24 q 120 51 100 24 q 139 150 139 79 l 139 646 q 120 745 139 718 q 49 772 101 772 l 49 795 l 595 795 l 595 654 l 576 654 q 543 737 564 718 q 447 757 522 757 l 244 757 l 244 424 l 452 424 q 514 445 494 424 q 541 518 534 467 l 562 518 l 562 294 l 541 294 q 454 385 536 385 z "},"G":{"ha":911,"x_min":82,"x_max":869,"o":"m 869 345 l 869 321 q 794 297 817 321 q 771 214 771 273 l 771 0 q 667 -14 743 -7 q 549 -20 591 -20 q 205 89 328 -20 q 82 375 82 197 q 136 599 82 499 q 287 757 190 699 q 492 815 383 815 q 633 792 557 815 q 708 778 682 778 q 753 804 742 778 l 778 804 l 778 570 l 755 570 q 667 726 742 667 q 492 785 592 785 q 285 684 366 785 q 204 424 204 583 q 297 134 204 249 q 532 18 391 18 q 665 103 665 18 l 665 189 q 646 292 665 262 q 578 321 627 321 l 547 321 l 547 345 l 869 345 z "},"H":{"ha":926,"x_min":50,"x_max":875,"o":"m 679 150 l 679 380 l 245 380 l 245 150 q 266 52 245 79 q 338 24 286 24 l 338 0 l 50 0 l 50 24 q 121 52 102 24 q 140 150 140 80 l 140 646 q 121 746 140 719 q 50 772 102 772 l 50 795 l 338 795 l 338 772 q 266 744 286 772 q 245 646 245 715 l 245 419 l 679 419 l 679 646 q 660 746 679 719 q 590 772 642 772 l 590 795 l 875 795 l 875 772 q 804 745 824 772 q 785 646 785 717 l 785 150 q 804 51 785 79 q 875 24 824 24 l 875 0 l 590 0 l 590 24 q 661 51 643 24 q 679 150 679 79 z "},"I":{"ha":361,"x_min":37,"x_max":323,"o":"m 323 795 l 323 772 q 253 745 273 772 q 233 646 233 717 l 233 150 q 253 51 233 79 q 323 24 273 24 l 323 0 l 37 0 l 37 24 q 109 51 90 24 q 127 150 127 78 l 127 646 q 109 746 127 719 q 37 772 90 772 l 37 795 l 323 795 z "},"J":{"ha":449,"x_min":-28,"x_max":392,"o":"m 392 795 l 392 772 q 321 745 341 772 q 301 646 301 717 l 301 -89 q 247 -250 301 -192 q 103 -309 192 -309 q -28 -237 17 -309 l -8 -224 q 64 -260 19 -260 q 159 -208 122 -260 q 196 -64 196 -157 l 196 646 q 176 745 196 718 q 104 772 157 772 l 104 795 l 392 795 z "},"K":{"ha":854,"x_min":54,"x_max":825,"o":"m 54 0 l 54 24 q 125 52 106 24 q 144 150 144 80 l 144 646 q 126 745 144 718 q 54 772 107 772 l 54 795 l 339 795 l 339 772 q 270 744 289 772 q 250 646 250 715 l 250 406 l 510 661 q 551 728 551 703 q 501 772 551 762 l 501 795 l 802 795 l 802 772 l 762 772 q 680 748 726 772 q 595 685 633 724 l 347 440 l 676 107 q 751 42 725 57 q 825 24 778 27 l 825 0 l 636 0 l 250 390 l 250 150 q 269 52 250 80 q 339 24 288 24 l 339 0 l 54 0 z "},"L":{"ha":694,"x_min":60,"x_max":685,"o":"m 661 174 l 685 174 l 636 0 l 60 0 l 60 24 q 129 54 109 24 q 150 157 150 85 l 150 657 q 131 747 150 722 q 60 772 111 772 l 60 795 l 345 795 l 345 772 q 276 743 297 772 q 256 647 256 714 l 256 115 q 274 55 256 71 q 346 39 293 39 l 504 39 q 606 64 577 39 q 661 174 635 90 z "},"M":{"ha":1071,"x_min":35,"x_max":1032,"o":"m 794 795 l 982 795 l 982 772 q 892 667 892 770 q 893 648 892 658 l 933 158 q 960 54 940 80 q 1032 24 980 28 l 1032 0 l 746 0 l 746 24 q 810 54 791 31 q 829 122 829 76 q 828 143 829 132 l 786 657 l 514 0 l 493 0 l 224 657 l 179 167 q 178 145 178 155 q 282 24 178 43 l 282 0 l 35 0 l 35 24 q 106 58 84 31 q 136 170 128 86 l 184 717 q 81 772 142 762 l 81 795 l 282 795 l 536 170 l 794 795 z "},"N":{"ha":926,"x_min":26,"x_max":873,"o":"m 633 772 l 633 795 l 873 795 l 873 772 q 793 745 816 772 q 771 647 771 718 l 771 0 l 747 0 l 183 692 l 183 134 q 207 49 183 75 q 288 24 231 24 l 288 0 l 46 0 l 46 24 q 124 54 104 24 q 144 160 144 84 l 144 625 q 117 733 144 701 q 26 772 90 766 l 26 795 l 231 795 l 730 176 l 730 642 q 710 744 730 715 q 633 772 689 772 z "},"O":{"ha":1013,"x_min":82,"x_max":930,"o":"m 82 401 q 204 697 82 578 q 509 815 326 815 q 808 695 686 815 q 930 401 930 575 q 807 102 930 224 q 505 -20 684 -20 q 205 102 328 -20 q 82 401 82 224 m 204 400 q 287 118 204 226 q 504 11 370 11 q 724 121 640 11 q 808 395 808 231 q 726 678 808 571 q 511 785 643 785 q 288 680 372 785 q 204 400 204 574 z "},"P":{"ha":694,"x_min":53,"x_max":652,"o":"m 53 795 l 343 795 q 569 732 486 795 q 652 570 652 669 q 579 417 652 471 q 371 364 507 364 q 249 372 319 364 l 249 150 q 268 51 249 78 q 339 24 288 24 l 339 0 l 53 0 l 53 24 q 124 52 104 24 q 143 147 143 81 l 143 646 q 124 745 143 717 q 53 772 104 772 l 53 795 m 347 765 l 249 765 l 249 408 q 347 395 289 395 q 489 441 437 395 q 541 567 541 487 q 489 709 541 653 q 347 765 437 765 z "},"Q":{"ha":999,"x_min":69,"x_max":946,"o":"m 937 -220 l 946 -241 q 814 -268 888 -268 q 701 -252 753 -268 q 603 -203 648 -236 q 491 -94 557 -170 q 401 -9 433 -26 q 167 134 265 18 q 69 399 69 250 q 125 607 69 509 q 278 760 182 705 q 492 815 374 815 q 797 695 673 815 q 921 399 921 574 q 825 135 921 251 q 581 -9 730 20 q 631 -67 595 -21 q 762 -198 709 -163 q 865 -232 814 -232 q 937 -220 903 -232 m 799 392 q 715 680 799 574 q 500 785 632 785 q 276 679 359 785 q 192 397 192 574 q 275 118 192 226 q 492 11 358 11 q 715 115 631 11 q 799 392 799 219 z "},"R":{"ha":825,"x_min":47,"x_max":806,"o":"m 307 368 l 243 368 l 243 150 q 263 52 243 79 q 334 24 283 24 l 334 0 l 47 0 l 47 24 q 119 52 100 24 q 138 150 138 79 l 138 648 q 119 746 138 719 q 47 772 101 772 l 47 795 l 374 795 q 567 737 494 795 q 639 587 639 678 q 475 392 639 441 q 545 329 511 369 q 635 195 579 288 q 732 59 697 91 q 806 24 768 26 l 806 0 l 643 0 q 522 178 593 61 q 402 334 446 300 q 307 368 359 368 m 326 765 l 243 765 l 243 401 l 340 401 q 478 452 428 401 q 528 585 528 502 q 472 715 528 665 q 326 765 417 765 z "},"S":{"ha":579,"x_min":75,"x_max":538,"o":"m 472 807 l 494 807 l 494 621 l 471 621 q 415 741 463 698 q 294 785 367 785 q 191 752 230 785 q 151 665 151 720 q 184 574 151 615 q 325 467 216 532 q 494 336 451 392 q 538 207 538 279 q 471 47 538 113 q 311 -20 405 -20 q 173 10 257 -20 q 129 22 138 22 q 98 -8 109 22 l 75 -8 l 75 207 l 98 207 q 156 64 99 118 q 290 11 214 11 q 407 50 363 11 q 450 153 450 88 q 414 245 450 201 q 264 359 378 289 q 140 450 172 416 q 94 523 109 483 q 79 610 79 562 q 139 758 79 701 q 296 815 199 815 q 411 794 349 815 q 452 785 440 785 q 465 789 461 785 q 472 807 468 793 z "},"T":{"ha":782,"x_min":35,"x_max":746,"o":"m 562 757 l 441 757 l 441 146 q 459 49 441 74 q 528 24 477 24 l 528 0 l 245 0 l 245 24 q 317 53 298 24 q 336 150 336 81 l 336 757 l 221 757 q 101 730 138 757 q 58 643 63 704 l 35 643 l 35 825 l 58 825 q 178 795 90 795 l 595 795 q 721 825 685 795 l 746 825 l 746 643 l 730 643 q 677 733 715 709 q 562 757 639 757 z "},"U":{"ha":926,"x_min":52,"x_max":873,"o":"m 677 167 l 677 646 q 659 743 677 715 q 593 772 640 770 l 593 795 l 873 795 l 873 772 q 803 745 823 772 q 783 646 783 717 l 783 150 q 803 52 783 80 q 873 24 822 24 l 873 0 l 677 0 l 677 111 q 412 -20 566 -20 q 214 56 286 -20 q 142 254 142 131 l 142 646 q 123 745 142 717 q 52 772 104 772 l 52 795 l 339 795 l 339 772 q 267 745 286 772 q 248 647 248 718 l 248 244 q 301 91 248 146 q 450 35 355 35 q 677 167 592 35 z "},"V":{"ha":825,"x_min":26,"x_max":806,"o":"m 806 795 l 806 771 q 661 616 718 771 l 427 -11 l 404 -11 l 158 635 q 98 748 123 724 q 26 772 73 771 l 26 795 l 315 795 l 315 772 q 245 719 245 772 q 254 679 245 701 l 449 165 l 633 661 q 645 716 645 693 q 574 772 645 772 l 574 795 l 806 795 z "},"W":{"ha":1274,"x_min":28,"x_max":1244,"o":"m 1244 795 l 1244 772 q 1166 733 1198 769 q 1104 611 1135 698 l 880 -11 l 856 -11 l 639 576 l 428 -11 l 406 -11 l 163 646 q 126 726 142 700 q 92 762 111 752 q 28 772 74 772 l 28 795 l 322 795 l 322 772 q 252 721 252 764 q 262 676 252 703 l 449 171 l 618 633 l 600 685 q 559 753 583 733 q 489 772 534 772 l 489 795 l 781 795 l 781 772 q 703 725 703 772 q 714 675 703 705 l 900 171 l 1063 616 q 1082 705 1082 670 q 1003 774 1082 774 l 1003 795 l 1244 795 z "},"X":{"ha":854,"x_min":25,"x_max":833,"o":"m 669 686 l 472 432 l 675 155 q 760 56 730 81 q 833 24 790 31 l 833 0 l 514 0 l 514 24 q 575 79 575 25 q 546 154 575 115 l 406 347 l 253 149 q 217 71 217 102 q 279 24 217 29 l 279 0 l 25 0 l 25 24 q 99 44 68 24 q 170 115 130 64 l 379 383 l 187 648 q 103 745 138 717 q 25 772 69 772 l 25 795 l 330 795 l 330 772 q 273 731 273 772 q 293 681 273 709 l 444 471 l 593 659 q 627 732 627 703 q 564 772 627 772 l 564 795 l 818 795 l 818 772 q 741 757 769 772 q 669 686 712 741 z "},"Y":{"ha":782,"x_min":25,"x_max":747,"o":"m 621 682 l 441 400 l 441 150 q 460 51 441 77 q 529 24 479 24 l 529 0 l 239 0 l 239 24 q 317 52 298 24 q 336 150 336 81 l 336 400 l 167 664 q 98 750 125 730 q 25 772 72 770 l 25 795 l 336 795 l 336 772 q 254 735 254 772 q 271 693 254 718 l 428 452 l 554 652 q 582 728 582 696 q 529 772 582 772 l 529 795 l 747 795 l 747 772 q 679 753 703 770 q 621 682 655 736 z "},"Z":{"ha":782,"x_min":43,"x_max":739,"o":"m 715 192 l 739 192 l 710 0 l 43 0 l 43 21 l 567 757 l 224 757 q 115 737 149 757 q 65 660 82 717 l 43 660 l 56 795 l 703 795 l 703 771 l 182 39 l 482 39 q 635 74 581 39 q 715 192 689 110 z "},"[":{"ha":361,"x_min":94,"x_max":315,"o":"m 94 -278 l 94 795 l 315 795 l 315 771 l 273 771 q 224 754 247 771 q 196 711 201 737 q 191 648 191 686 l 191 -131 q 201 -209 191 -189 q 230 -241 211 -229 q 273 -253 250 -253 l 315 -253 l 315 -278 l 94 -278 z "},"\\":{"ha":694,"x_min":113,"x_max":582,"o":"m 113 827 l 176 827 l 582 -17 l 518 -17 l 113 827 z "},"]":{"ha":361,"x_min":46,"x_max":267,"o":"m 267 795 l 267 -278 l 46 -278 l 46 -253 l 87 -253 q 135 -237 112 -253 q 164 -197 157 -220 q 171 -131 171 -174 l 171 648 q 87 771 171 771 l 46 771 l 46 795 l 267 795 z "},"^":{"ha":652,"x_min":25,"x_max":627,"o":"m 317 940 l 338 940 l 627 454 l 564 454 l 326 851 l 89 454 l 25 454 l 317 940 z "},"_":{"ha":694,"x_min":-12,"x_max":707,"o":"m -12 -174 l -12 -104 l 707 -104 l 707 -174 l -12 -174 z "},"`":{"ha":463,"x_min":123,"x_max":290,"o":"m 123 872 l 200 872 l 290 595 l 264 595 l 123 872 z "},"a":{"ha":507,"x_min":41,"x_max":493,"o":"m 182 -16 q 83 23 124 -16 q 41 115 41 61 q 77 200 41 167 q 222 264 113 234 q 314 297 290 283 l 314 334 q 284 420 314 387 q 204 453 254 453 q 123 425 159 453 q 74 347 88 396 l 49 354 q 114 464 64 422 q 231 505 163 505 q 359 457 310 505 q 408 325 408 410 l 408 114 q 414 53 408 69 q 436 37 420 37 q 454 46 447 37 q 469 85 460 56 l 493 85 q 464 12 490 39 q 397 -16 439 -16 q 314 54 337 -16 q 249 -1 277 14 q 182 -16 220 -16 m 314 100 l 314 267 q 253 244 293 258 q 158 194 179 219 q 138 127 138 170 q 160 64 138 91 q 212 37 182 37 q 271 55 240 37 q 314 100 301 73 z "},"b":{"ha":622,"x_min":-1,"x_max":574,"o":"m 157 872 l 180 872 l 180 432 q 256 486 212 466 q 346 505 300 505 q 508 436 441 505 q 574 265 574 366 q 485 71 574 146 q 239 -5 395 -5 q 86 9 178 -5 l 86 747 q 72 819 86 805 q -1 832 57 832 l -1 856 l 157 872 m 180 396 l 180 115 q 199 40 180 60 q 264 20 218 20 q 415 81 359 20 q 471 254 471 143 q 422 406 471 347 q 307 465 374 465 q 180 396 237 465 z "},"c":{"ha":534,"x_min":49,"x_max":513,"o":"m 498 505 l 498 332 l 475 332 q 415 439 459 399 q 310 478 371 478 q 191 421 237 478 q 144 273 144 364 q 199 100 144 173 q 329 26 254 26 q 428 54 379 26 q 513 129 477 81 l 513 93 q 296 -16 433 -16 q 118 54 186 -16 q 49 233 49 123 q 123 426 49 347 q 302 505 197 505 q 407 486 349 505 q 441 478 432 478 q 475 505 463 478 l 498 505 z "},"d":{"ha":636,"x_min":41,"x_max":614,"o":"m 509 872 l 532 872 l 532 96 q 549 39 532 55 q 614 24 567 24 l 614 0 l 328 0 q 118 73 195 0 q 41 256 41 145 q 109 432 41 359 q 272 505 176 505 q 437 446 349 505 l 437 747 q 425 814 437 797 q 372 832 412 832 l 345 832 l 345 856 l 509 872 m 437 97 l 437 393 q 371 454 409 432 q 294 476 332 476 q 186 421 227 476 q 144 277 144 366 q 201 92 144 162 q 359 22 258 22 q 419 40 401 22 q 437 97 437 58 z "},"e":{"ha":564,"x_min":50,"x_max":518,"o":"m 518 126 l 518 90 q 427 9 473 33 q 315 -16 380 -16 q 125 57 200 -16 q 50 240 50 129 q 122 429 50 352 q 297 505 193 505 q 446 448 382 505 q 510 310 510 390 l 510 300 l 149 300 l 149 293 q 173 152 149 212 q 245 58 198 92 q 345 24 293 24 q 427 44 393 24 q 518 126 461 64 m 149 323 l 416 323 l 416 333 q 379 437 416 399 q 285 476 341 476 q 189 435 225 476 q 149 323 153 395 z "},"f":{"ha":361,"x_min":20,"x_max":460,"o":"m 326 454 l 204 454 l 204 97 q 221 41 204 58 q 275 24 237 24 l 298 24 l 298 0 l 20 0 l 20 24 l 41 24 q 94 38 79 24 q 110 89 110 53 l 110 454 l 41 454 l 41 478 q 110 511 89 497 l 110 608 q 166 798 110 723 q 321 872 223 872 q 460 832 407 872 l 412 708 l 389 708 q 389 729 389 719 q 365 813 389 783 q 296 843 340 843 q 229 812 253 843 q 204 728 204 782 l 204 490 l 326 490 l 326 454 z "},"g":{"ha":579,"x_min":17,"x_max":562,"o":"m 404 500 l 562 500 l 562 444 l 432 444 q 488 301 488 377 q 434 169 488 227 q 304 107 380 111 q 198 73 251 104 q 144 16 144 41 q 173 -25 144 -12 q 304 -57 201 -39 q 465 -95 420 -78 q 535 -143 510 -112 q 561 -215 561 -175 q 473 -361 561 -302 q 258 -421 385 -421 q 84 -379 151 -421 q 17 -271 17 -338 q 55 -188 17 -224 q 176 -117 94 -151 l 176 -114 q 98 -78 126 -102 q 69 -24 69 -54 q 221 111 69 58 l 221 114 q 107 182 147 134 q 66 300 66 231 q 126 447 66 389 q 275 505 185 505 q 340 503 293 505 q 404 500 388 500 m 155 310 q 189 181 155 230 q 277 132 222 132 q 366 180 333 132 q 399 310 399 228 q 365 431 399 385 q 278 478 332 478 q 189 432 223 478 q 155 310 155 385 m 510 -258 q 450 -183 510 -210 q 221 -127 389 -157 q 78 -244 78 -166 q 149 -333 78 -297 q 325 -368 219 -368 q 458 -338 407 -368 q 510 -258 510 -307 z "},"h":{"ha":608,"x_min":3,"x_max":600,"o":"m 427 103 l 427 346 q 399 424 427 395 q 328 453 372 453 q 253 432 286 453 q 184 359 220 410 l 184 90 q 202 38 184 52 q 267 24 220 24 l 267 0 l 3 0 l 3 24 q 75 42 59 25 q 90 118 90 59 l 90 758 q 74 818 90 803 q 3 832 58 832 l 3 856 l 161 872 l 184 872 l 184 407 q 270 483 232 461 q 357 505 309 505 q 475 459 429 505 q 521 335 521 413 l 521 118 q 536 42 521 60 q 600 24 552 24 l 600 0 l 345 0 l 345 24 q 411 39 395 24 q 427 103 427 55 z "},"i":{"ha":318,"x_min":20,"x_max":289,"o":"m 183 505 l 207 505 l 207 92 q 224 37 207 51 q 289 24 242 24 l 289 0 l 20 0 l 20 24 q 96 37 79 24 q 113 92 113 50 l 113 393 q 97 452 113 438 q 20 467 81 467 l 20 490 l 183 505 m 161 760 q 204 742 186 760 q 221 700 221 725 q 203 657 221 675 q 161 639 186 639 q 118 657 136 639 q 100 700 100 675 q 118 742 100 725 q 161 760 136 760 z "},"j":{"ha":318,"x_min":-56,"x_max":221,"o":"m 192 505 l 215 505 l 215 -78 q -41 -332 215 -332 l -56 -332 l -56 -309 l -52 -309 q 81 -258 41 -309 q 121 -92 121 -207 l 121 404 q 102 455 121 443 q 28 467 83 467 l 28 490 l 192 505 m 161 760 q 204 742 186 760 q 221 700 221 725 q 203 657 221 675 q 161 639 186 639 q 118 657 136 639 q 100 700 100 675 q 118 742 100 725 q 161 760 136 760 z "},"k":{"ha":608,"x_min":12,"x_max":611,"o":"m 414 407 l 286 290 l 490 86 q 550 39 525 52 q 611 24 574 26 l 611 0 l 450 0 l 195 245 q 211 38 195 52 q 277 24 227 24 l 277 0 l 12 0 l 12 24 q 84 42 69 25 q 100 118 100 58 l 100 765 q 84 820 100 808 q 12 832 68 832 l 12 856 l 171 872 l 195 872 l 195 250 l 326 371 q 364 433 364 406 q 304 467 364 465 l 304 490 l 572 490 l 572 467 l 549 467 q 414 407 477 467 z "},"l":{"ha":334,"x_min":24,"x_max":306,"o":"m 293 24 l 306 24 l 306 0 l 32 0 l 32 24 l 57 24 q 109 43 95 24 q 122 117 122 63 l 122 765 q 107 818 122 803 q 56 832 92 832 l 24 832 l 24 856 l 193 872 l 216 872 l 216 93 q 233 38 216 53 q 293 24 249 24 z "},"m":{"ha":999,"x_min":11,"x_max":968,"o":"m 204 505 l 204 403 l 207 403 q 285 477 237 450 q 382 505 333 505 q 477 476 435 505 q 536 395 519 446 q 718 505 615 505 q 838 461 790 505 q 885 339 885 416 l 885 92 q 903 38 885 52 q 968 24 920 24 l 968 0 l 707 0 l 707 24 q 775 41 760 24 q 790 118 790 58 l 790 351 q 762 426 790 399 q 684 453 733 453 q 545 358 606 453 l 545 94 q 562 38 545 53 q 627 24 580 24 l 627 0 l 368 0 l 368 24 q 437 41 424 24 q 450 118 450 59 l 450 346 q 421 424 450 395 q 346 453 392 453 q 268 427 306 453 q 204 358 229 401 l 204 90 q 222 37 204 52 q 288 22 241 22 l 288 0 l 26 0 l 26 24 q 95 41 81 24 q 110 103 110 58 l 110 395 q 94 450 110 433 q 41 467 78 467 l 11 467 l 11 490 l 180 505 l 204 505 z "},"n":{"ha":636,"x_min":14,"x_max":618,"o":"m 191 505 l 191 407 q 368 505 277 505 q 487 457 439 505 q 534 329 534 408 l 534 107 q 551 40 534 56 q 618 24 568 24 l 618 0 l 355 0 l 355 24 q 422 36 404 24 q 440 85 440 49 l 440 342 q 409 424 440 393 q 330 454 378 454 q 191 358 261 454 l 191 118 q 207 40 191 57 q 273 24 222 24 l 273 0 l 14 0 l 14 24 q 83 42 70 24 q 96 118 96 60 l 96 395 q 80 453 96 439 q 14 467 64 467 l 14 490 l 167 505 l 191 505 z "},"o":{"ha":636,"x_min":49,"x_max":587,"o":"m 587 244 q 510 59 587 133 q 318 -16 433 -16 q 126 59 203 -16 q 49 244 49 133 q 125 431 49 357 q 318 505 202 505 q 511 431 434 505 q 587 244 587 357 m 485 244 q 440 414 485 349 q 318 478 395 478 q 196 415 241 478 q 151 244 151 352 q 196 75 151 138 q 318 12 240 12 q 440 76 396 12 q 485 244 485 140 z "},"p":{"ha":636,"x_min":12,"x_max":586,"o":"m 193 505 l 193 422 q 278 487 240 468 q 364 505 317 505 q 523 432 460 505 q 586 249 586 359 q 516 60 586 135 q 342 -16 447 -16 q 193 43 269 -16 l 193 -281 q 211 -347 193 -331 q 275 -363 228 -363 l 275 -386 l 12 -386 l 12 -363 q 81 -349 63 -363 q 98 -294 98 -334 l 98 390 q 83 453 98 439 q 12 467 68 467 l 12 490 l 170 505 l 193 505 m 193 386 l 193 78 q 329 17 251 17 q 439 79 395 17 q 484 232 484 140 q 439 395 484 331 q 326 460 395 460 q 193 386 257 460 z "},"q":{"ha":622,"x_min":40,"x_max":610,"o":"m 431 -293 l 431 24 q 285 -16 361 -16 q 108 52 176 -16 q 40 229 40 120 q 126 422 40 354 q 374 490 212 490 q 525 484 413 490 l 525 -292 q 543 -348 525 -334 q 610 -363 560 -363 l 610 -386 l 350 -386 l 350 -363 q 414 -348 397 -363 q 431 -293 431 -333 m 431 54 l 431 449 q 366 456 397 456 q 203 397 262 456 q 143 239 143 339 q 192 85 143 147 q 322 22 241 22 q 431 54 373 22 z "},"r":{"ha":478,"x_min":9,"x_max":464,"o":"m 205 505 l 205 399 q 311 481 273 458 q 374 505 349 505 q 464 467 420 505 l 427 379 q 310 422 348 422 q 205 363 268 422 l 205 93 q 222 38 205 52 q 288 24 239 24 l 288 0 l 28 0 l 28 24 q 95 40 79 24 q 111 118 111 56 l 111 386 q 94 452 111 437 q 9 467 77 467 l 9 490 l 182 505 l 205 505 z "},"s":{"ha":435,"x_min":54,"x_max":390,"o":"m 364 505 l 364 354 l 336 354 q 296 445 330 411 q 214 478 262 478 q 155 460 177 478 q 132 411 132 441 q 153 358 132 381 q 243 304 174 336 q 361 226 332 263 q 390 136 390 189 q 344 30 390 75 q 235 -16 298 -16 q 149 8 202 -16 q 110 21 119 21 q 88 12 97 21 q 78 -12 79 2 l 54 -12 l 54 155 l 78 155 q 135 51 91 90 q 236 12 179 12 q 297 37 273 12 q 322 97 322 61 q 299 157 322 132 q 201 216 277 182 q 88 286 115 253 q 61 364 61 318 q 105 464 61 422 q 211 505 150 505 q 273 492 239 505 q 311 482 296 482 q 340 505 331 482 l 364 505 z "},"t":{"ha":406,"x_min":22,"x_max":406,"o":"m 186 659 l 210 659 l 210 493 l 380 493 l 380 457 l 210 457 l 210 140 q 233 64 210 91 q 298 37 256 37 q 390 85 349 37 l 406 66 q 257 -16 341 -16 q 155 24 194 -16 q 115 127 115 64 l 115 457 l 22 457 l 22 481 q 186 659 124 532 z "},"u":{"ha":636,"x_min":17,"x_max":619,"o":"m 511 505 l 534 505 l 534 93 q 552 38 534 52 q 619 24 569 24 l 619 0 l 440 -9 l 440 81 l 437 81 q 265 -16 363 -16 q 150 32 195 -16 q 104 150 104 79 l 104 401 q 85 453 104 439 q 17 467 66 467 l 17 490 l 175 505 l 199 505 l 199 154 q 229 73 199 102 q 310 43 259 43 q 440 123 380 43 l 440 389 q 425 452 440 439 q 345 467 409 465 l 345 490 l 511 505 z "},"v":{"ha":579,"x_min":22,"x_max":559,"o":"m 260 490 l 260 467 q 212 426 212 463 q 222 382 212 408 l 332 119 l 428 368 q 443 425 443 406 q 379 467 443 462 l 379 490 l 559 490 l 559 467 q 498 449 515 463 q 465 396 481 435 l 307 -11 l 283 -11 l 126 375 q 85 449 102 433 q 22 467 68 465 l 22 490 l 260 490 z "},"w":{"ha":926,"x_min":20,"x_max":907,"o":"m 258 490 l 258 467 q 207 437 207 465 q 218 395 207 423 l 329 119 l 444 415 q 415 456 429 446 q 372 467 401 466 l 372 490 l 610 490 l 610 467 q 547 428 547 465 q 554 396 547 415 l 664 119 l 765 376 q 777 426 777 408 q 715 467 777 465 l 715 490 l 907 490 l 907 467 q 836 451 855 467 q 793 376 817 435 l 640 -11 l 616 -11 l 460 376 l 306 -11 l 282 -11 l 110 412 q 20 467 88 467 l 20 490 l 258 490 z "},"x":{"ha":636,"x_min":21,"x_max":614,"o":"m 221 0 l 21 0 l 21 24 q 100 39 75 24 q 167 104 125 54 l 273 231 l 157 383 q 95 447 120 431 q 21 467 69 463 l 21 490 l 292 490 l 292 467 q 248 438 248 463 q 268 393 248 421 l 334 301 l 400 383 q 426 437 426 414 q 387 467 426 467 l 387 490 l 582 490 l 582 467 q 510 445 536 462 q 437 374 483 427 l 355 277 l 504 82 q 614 24 549 24 l 614 0 l 355 0 l 355 24 q 393 51 393 29 q 378 85 393 64 l 292 203 l 204 93 q 186 52 186 71 q 221 24 186 26 l 221 0 z "},"y":{"ha":579,"x_min":22,"x_max":562,"o":"m 258 490 l 258 467 q 216 424 216 460 q 224 392 216 410 l 342 114 l 428 374 q 438 425 438 406 q 389 467 438 464 l 389 490 l 562 490 l 562 467 q 497 440 523 467 q 450 351 471 413 l 254 -228 q 182 -359 226 -311 q 92 -407 138 -407 q 31 -386 64 -407 l 62 -301 q 110 -313 88 -313 q 183 -285 154 -313 q 235 -192 212 -257 l 298 -14 l 122 393 q 83 452 102 437 q 22 467 64 466 l 22 490 l 258 490 z "},"z":{"ha":507,"x_min":41,"x_max":479,"o":"m 54 490 l 467 490 l 467 467 l 154 24 l 307 24 q 419 54 385 24 q 456 150 454 83 l 479 150 l 467 0 l 41 0 l 41 24 l 354 467 l 216 467 q 113 434 153 467 q 65 347 72 402 l 41 347 l 54 490 z "},"{":{"ha":667,"x_min":195,"x_max":568,"o":"m 355 86 q 311 190 355 146 q 195 244 267 234 l 195 275 q 311 329 267 286 q 355 433 355 373 q 341 524 355 465 q 326 635 326 587 q 392 801 326 729 q 562 893 458 873 l 568 868 q 454 810 495 851 q 414 713 414 770 q 429 600 414 681 q 443 496 443 523 q 393 359 443 420 q 250 260 342 298 q 393 160 342 222 q 443 24 443 99 q 429 -81 443 -3 q 414 -193 414 -161 q 454 -291 414 -250 q 568 -349 495 -332 l 562 -374 q 392 -282 458 -354 q 326 -115 326 -210 q 341 -4 326 -68 q 355 86 355 57 z "},"|":{"ha":689,"x_min":314,"x_max":375,"o":"m 314 -328 l 314 827 l 375 827 l 375 -328 l 314 -328 z "},"}":{"ha":667,"x_min":98,"x_max":472,"o":"m 311 433 q 356 329 311 373 q 472 275 400 286 l 472 244 q 356 190 400 234 q 311 86 311 146 q 326 -4 311 56 q 340 -115 340 -64 q 275 -282 340 -210 q 104 -374 209 -354 l 98 -349 q 212 -291 172 -332 q 253 -193 253 -250 q 238 -81 253 -161 q 224 24 224 -3 q 274 160 224 99 q 416 260 324 222 q 274 359 324 298 q 224 496 224 420 q 238 600 224 523 q 253 713 253 681 q 212 810 253 770 q 98 868 172 851 l 104 893 q 275 801 209 873 q 340 635 340 729 q 327 524 340 577 q 311 433 311 460 z "},"~":{"ha":926,"x_min":100,"x_max":827,"o":"m 132 351 l 100 351 l 100 357 q 147 493 100 439 q 268 546 194 546 q 480 479 321 546 q 671 419 627 419 q 755 452 723 419 q 794 545 788 485 l 827 545 q 777 404 824 458 q 657 350 730 350 q 441 416 605 350 q 257 473 298 473 q 132 351 153 473 z "},"Ä":{"ha":825,"x_min":31,"x_max":794,"o":"m 514 0 l 514 24 q 583 71 583 24 q 576 102 583 85 l 504 322 l 248 322 l 193 163 q 173 75 173 102 q 236 24 173 25 l 236 0 l 31 0 l 31 24 q 99 53 75 30 q 149 149 123 76 l 368 804 l 450 804 l 681 119 q 723 41 701 59 q 794 24 745 24 l 794 0 l 514 0 m 262 371 l 486 371 l 374 708 l 262 371 m 521 1036 q 562 1019 545 1036 q 579 978 579 1002 q 562 937 579 954 q 521 920 545 920 q 480 937 497 920 q 463 978 463 954 q 480 1019 463 1002 q 521 1036 497 1036 m 307 1036 q 348 1019 330 1036 q 365 978 365 1002 q 348 937 365 954 q 307 920 330 920 q 266 937 283 920 q 248 978 248 954 q 266 1019 248 1002 q 307 1036 283 1036 z "},"Å":{"ha":825,"x_min":31,"x_max":794,"o":"m 514 0 l 514 24 q 583 71 583 24 q 576 102 583 85 l 504 322 l 248 322 l 193 163 q 173 75 173 102 q 236 24 173 25 l 236 0 l 31 0 l 31 24 q 99 53 75 30 q 149 149 123 76 l 368 804 l 450 804 l 681 119 q 723 41 701 59 q 794 24 745 24 l 794 0 l 514 0 m 262 371 l 486 371 l 374 708 l 262 371 m 414 1052 q 351 1026 377 1052 q 325 963 325 1000 q 351 900 325 926 q 414 874 377 874 q 476 900 450 874 q 503 963 503 926 q 476 1026 503 1000 q 414 1052 450 1052 m 414 1085 q 500 1049 465 1085 q 536 963 536 1014 q 500 876 536 911 q 414 840 465 840 q 327 876 363 840 q 292 963 292 911 q 327 1049 292 1014 q 414 1085 363 1085 z "},"Ç":{"ha":854,"x_min":85,"x_max":808,"o":"m 783 807 l 783 570 l 760 570 q 668 732 731 680 q 501 785 606 785 q 286 687 366 785 q 207 427 207 589 q 291 139 207 248 q 510 31 374 31 q 787 205 698 31 l 808 186 q 679 36 768 91 q 476 -20 590 -20 q 276 31 368 -20 q 135 171 184 82 q 85 376 85 260 q 201 691 85 566 q 496 815 318 815 q 647 794 555 815 q 718 782 699 782 q 761 807 749 782 l 783 807 m 437 11 l 460 11 l 437 -75 q 506 -111 480 -83 q 532 -176 532 -138 q 484 -261 532 -230 q 353 -292 437 -292 q 334 -292 344 -292 l 334 -265 q 460 -187 460 -263 q 394 -129 460 -145 l 437 11 z "},"É":{"ha":708,"x_min":47,"x_max":657,"o":"m 551 494 l 575 494 l 575 301 l 551 301 q 520 365 538 352 q 440 378 502 378 l 243 378 l 243 93 q 256 51 243 63 q 301 39 269 39 l 440 39 q 543 47 515 39 q 591 77 572 55 q 633 149 611 99 l 657 149 l 621 0 l 47 0 l 47 24 q 119 51 101 24 q 138 149 138 79 l 138 646 q 119 745 138 718 q 47 772 100 772 l 47 795 l 621 795 l 621 663 l 606 663 q 571 738 593 720 q 472 757 548 757 l 243 757 l 243 416 l 465 416 q 527 433 511 416 q 551 494 544 449 m 296 842 l 386 1120 l 463 1120 l 322 842 l 296 842 z "},"Ñ":{"ha":926,"x_min":26,"x_max":873,"o":"m 633 772 l 633 795 l 873 795 l 873 772 q 793 745 816 772 q 771 647 771 718 l 771 0 l 747 0 l 183 692 l 183 134 q 207 49 183 75 q 288 24 231 24 l 288 0 l 46 0 l 46 24 q 124 54 104 24 q 144 160 144 84 l 144 625 q 117 733 144 701 q 26 772 90 766 l 26 795 l 231 795 l 730 176 l 730 642 q 710 744 730 715 q 633 772 689 772 m 286 897 l 260 897 q 295 980 260 944 q 374 1016 330 1016 q 484 983 410 1016 q 589 951 554 951 q 624 968 610 951 q 642 1011 638 984 l 667 1011 q 634 928 666 962 q 558 893 602 893 q 437 928 509 893 q 343 962 366 962 q 286 897 300 962 z "},"Ö":{"ha":1013,"x_min":82,"x_max":930,"o":"m 82 401 q 204 697 82 578 q 509 815 326 815 q 808 695 686 815 q 930 401 930 575 q 807 102 930 224 q 505 -20 684 -20 q 205 102 328 -20 q 82 401 82 224 m 204 400 q 287 118 204 226 q 504 11 370 11 q 724 121 640 11 q 808 395 808 231 q 726 678 808 571 q 511 785 643 785 q 288 680 372 785 q 204 400 204 574 m 614 1036 q 655 1019 637 1036 q 672 978 672 1002 q 655 937 672 954 q 614 920 637 920 q 573 937 590 920 q 555 978 555 954 q 573 1019 555 1002 q 614 1036 590 1036 m 399 1036 q 440 1019 423 1036 q 458 978 458 1002 q 440 937 458 954 q 399 920 423 920 q 358 937 376 920 q 341 978 341 954 q 358 1019 341 1002 q 399 1036 376 1036 z "},"Ü":{"ha":926,"x_min":52,"x_max":873,"o":"m 677 167 l 677 646 q 659 743 677 715 q 593 772 640 770 l 593 795 l 873 795 l 873 772 q 803 745 823 772 q 783 646 783 717 l 783 150 q 803 52 783 80 q 873 24 822 24 l 873 0 l 677 0 l 677 111 q 412 -20 566 -20 q 214 56 286 -20 q 142 254 142 131 l 142 646 q 123 745 142 717 q 52 772 104 772 l 52 795 l 339 795 l 339 772 q 267 745 286 772 q 248 647 248 718 l 248 244 q 301 91 248 146 q 450 35 355 35 q 677 167 592 35 m 571 1036 q 612 1019 595 1036 q 629 978 629 1002 q 612 937 629 954 q 571 920 595 920 q 530 937 547 920 q 513 978 513 954 q 530 1019 513 1002 q 571 1036 547 1036 m 357 1036 q 398 1019 380 1036 q 415 978 415 1002 q 398 937 415 954 q 357 920 380 920 q 316 937 333 920 q 298 978 298 954 q 316 1019 298 1002 q 357 1036 333 1036 z "},"á":{"ha":507,"x_min":41,"x_max":493,"o":"m 182 -16 q 83 23 124 -16 q 41 115 41 61 q 77 200 41 167 q 222 264 113 234 q 314 297 290 283 l 314 334 q 284 420 314 387 q 204 453 254 453 q 123 425 159 453 q 74 347 88 396 l 49 354 q 114 464 64 422 q 231 505 163 505 q 359 457 310 505 q 408 325 408 410 l 408 114 q 414 53 408 69 q 436 37 420 37 q 454 46 447 37 q 469 85 460 56 l 493 85 q 464 12 490 39 q 397 -16 439 -16 q 314 54 337 -16 q 249 -1 277 14 q 182 -16 220 -16 m 314 100 l 314 267 q 253 244 293 258 q 158 194 179 219 q 138 127 138 170 q 160 64 138 91 q 212 37 182 37 q 271 55 240 37 q 314 100 301 73 m 183 595 l 273 872 l 350 872 l 210 595 l 183 595 z "},"à":{"ha":507,"x_min":41,"x_max":493,"o":"m 182 -16 q 83 23 124 -16 q 41 115 41 61 q 77 200 41 167 q 222 264 113 234 q 314 297 290 283 l 314 334 q 284 420 314 387 q 204 453 254 453 q 123 425 159 453 q 74 347 88 396 l 49 354 q 114 464 64 422 q 231 505 163 505 q 359 457 310 505 q 408 325 408 410 l 408 114 q 414 53 408 69 q 436 37 420 37 q 454 46 447 37 q 469 85 460 56 l 493 85 q 464 12 490 39 q 397 -16 439 -16 q 314 54 337 -16 q 249 -1 277 14 q 182 -16 220 -16 m 314 100 l 314 267 q 253 244 293 258 q 158 194 179 219 q 138 127 138 170 q 160 64 138 91 q 212 37 182 37 q 271 55 240 37 q 314 100 301 73 m 134 872 l 211 872 l 301 595 l 275 595 l 134 872 z "},"â":{"ha":507,"x_min":41,"x_max":493,"o":"m 182 -16 q 83 23 124 -16 q 41 115 41 61 q 77 200 41 167 q 222 264 113 234 q 314 297 290 283 l 314 334 q 284 420 314 387 q 204 453 254 453 q 123 425 159 453 q 74 347 88 396 l 49 354 q 114 464 64 422 q 231 505 163 505 q 359 457 310 505 q 408 325 408 410 l 408 114 q 414 53 408 69 q 436 37 420 37 q 454 46 447 37 q 469 85 460 56 l 493 85 q 464 12 490 39 q 397 -16 439 -16 q 314 54 337 -16 q 249 -1 277 14 q 182 -16 220 -16 m 314 100 l 314 267 q 253 244 293 258 q 158 194 179 219 q 138 127 138 170 q 160 64 138 91 q 212 37 182 37 q 271 55 240 37 q 314 100 301 73 m 242 872 l 277 872 l 419 600 l 388 600 l 255 781 l 127 600 l 99 600 l 242 872 z "},"ä":{"ha":507,"x_min":41,"x_max":493,"o":"m 182 -16 q 83 23 124 -16 q 41 115 41 61 q 77 200 41 167 q 222 264 113 234 q 314 297 290 283 l 314 334 q 284 420 314 387 q 204 453 254 453 q 123 425 159 453 q 74 347 88 396 l 49 354 q 114 464 64 422 q 231 505 163 505 q 359 457 310 505 q 408 325 408 410 l 408 114 q 414 53 408 69 q 436 37 420 37 q 454 46 447 37 q 469 85 460 56 l 493 85 q 464 12 490 39 q 397 -16 439 -16 q 314 54 337 -16 q 249 -1 277 14 q 182 -16 220 -16 m 314 100 l 314 267 q 253 244 293 258 q 158 194 179 219 q 138 127 138 170 q 160 64 138 91 q 212 37 182 37 q 271 55 240 37 q 314 100 301 73 m 366 789 q 407 771 390 789 q 425 730 425 754 q 407 689 425 707 q 366 672 390 672 q 325 689 342 672 q 308 730 308 707 q 325 771 308 754 q 366 789 342 789 m 152 789 q 193 771 176 789 q 210 730 210 754 q 193 689 210 707 q 152 672 176 672 q 111 689 128 672 q 94 730 94 707 q 111 771 94 754 q 152 789 128 789 z "},"ã":{"ha":507,"x_min":41,"x_max":493,"o":"m 182 -16 q 83 23 124 -16 q 41 115 41 61 q 77 200 41 167 q 222 264 113 234 q 314 297 290 283 l 314 334 q 284 420 314 387 q 204 453 254 453 q 123 425 159 453 q 74 347 88 396 l 49 354 q 114 464 64 422 q 231 505 163 505 q 359 457 310 505 q 408 325 408 410 l 408 114 q 414 53 408 69 q 436 37 420 37 q 454 46 447 37 q 469 85 460 56 l 493 85 q 464 12 490 39 q 397 -16 439 -16 q 314 54 337 -16 q 249 -1 277 14 q 182 -16 220 -16 m 314 100 l 314 267 q 253 244 293 258 q 158 194 179 219 q 138 127 138 170 q 160 64 138 91 q 212 37 182 37 q 271 55 240 37 q 314 100 301 73 m 81 650 l 55 650 q 90 732 56 696 q 169 768 125 768 q 279 735 205 768 q 384 704 349 704 q 419 720 405 704 q 437 764 433 736 l 462 764 q 429 680 461 715 q 353 646 397 646 q 232 680 304 646 q 138 714 161 714 q 81 650 95 714 z "},"å":{"ha":507,"x_min":41,"x_max":493,"o":"m 182 -16 q 83 23 124 -16 q 41 115 41 61 q 77 200 41 167 q 222 264 113 234 q 314 297 290 283 l 314 334 q 284 420 314 387 q 204 453 254 453 q 123 425 159 453 q 74 347 88 396 l 49 354 q 114 464 64 422 q 231 505 163 505 q 359 457 310 505 q 408 325 408 410 l 408 114 q 414 53 408 69 q 436 37 420 37 q 454 46 447 37 q 469 85 460 56 l 493 85 q 464 12 490 39 q 397 -16 439 -16 q 314 54 337 -16 q 249 -1 277 14 q 182 -16 220 -16 m 314 100 l 314 267 q 253 244 293 258 q 158 194 179 219 q 138 127 138 170 q 160 64 138 91 q 212 37 182 37 q 271 55 240 37 q 314 100 301 73 m 259 804 q 196 778 222 804 q 170 715 170 752 q 196 653 170 679 q 259 627 222 627 q 322 653 296 627 q 348 715 348 679 q 322 778 348 752 q 259 804 296 804 m 259 838 q 346 802 310 838 q 381 715 381 766 q 346 628 381 664 q 259 593 310 593 q 173 628 208 593 q 137 715 137 664 q 173 802 137 766 q 259 838 208 838 z "},"ç":{"ha":534,"x_min":49,"x_max":513,"o":"m 498 505 l 498 332 l 475 332 q 415 439 459 399 q 310 478 371 478 q 191 421 237 478 q 144 273 144 364 q 199 100 144 173 q 329 26 254 26 q 428 54 379 26 q 513 129 477 81 l 513 93 q 296 -16 433 -16 q 118 54 186 -16 q 49 233 49 123 q 123 426 49 347 q 302 505 197 505 q 407 486 349 505 q 441 478 432 478 q 475 505 463 478 l 498 505 m 271 11 l 294 11 l 271 -75 q 340 -111 314 -83 q 366 -176 366 -138 q 318 -261 366 -230 q 187 -292 271 -292 q 168 -292 178 -292 l 168 -265 q 294 -187 294 -263 q 228 -129 294 -145 l 271 11 z "},"é":{"ha":564,"x_min":50,"x_max":518,"o":"m 518 126 l 518 90 q 427 9 473 33 q 315 -16 380 -16 q 125 57 200 -16 q 50 240 50 129 q 122 429 50 352 q 297 505 193 505 q 446 448 382 505 q 510 310 510 390 l 510 300 l 149 300 l 149 293 q 173 152 149 212 q 245 58 198 92 q 345 24 293 24 q 427 44 393 24 q 518 126 461 64 m 149 323 l 416 323 l 416 333 q 379 437 416 399 q 285 476 341 476 q 189 435 225 476 q 149 323 153 395 m 197 595 l 288 872 l 364 872 l 224 595 l 197 595 z "},"è":{"ha":564,"x_min":50,"x_max":518,"o":"m 518 126 l 518 90 q 427 9 473 33 q 315 -16 380 -16 q 125 57 200 -16 q 50 240 50 129 q 122 429 50 352 q 297 505 193 505 q 446 448 382 505 q 510 310 510 390 l 510 300 l 149 300 l 149 293 q 173 152 149 212 q 245 58 198 92 q 345 24 293 24 q 427 44 393 24 q 518 126 461 64 m 149 323 l 416 323 l 416 333 q 379 437 416 399 q 285 476 341 476 q 189 435 225 476 q 149 323 153 395 m 149 872 l 225 872 l 315 595 l 289 595 l 149 872 z "},"ê":{"ha":564,"x_min":50,"x_max":518,"o":"m 518 126 l 518 90 q 427 9 473 33 q 315 -16 380 -16 q 125 57 200 -16 q 50 240 50 129 q 122 429 50 352 q 297 505 193 505 q 446 448 382 505 q 510 310 510 390 l 510 300 l 149 300 l 149 293 q 173 152 149 212 q 245 58 198 92 q 345 24 293 24 q 427 44 393 24 q 518 126 461 64 m 149 323 l 416 323 l 416 333 q 379 437 416 399 q 285 476 341 476 q 189 435 225 476 q 149 323 153 395 m 256 872 l 291 872 l 433 600 l 401 600 l 269 781 l 140 600 l 113 600 l 256 872 z "},"ë":{"ha":564,"x_min":50,"x_max":518,"o":"m 518 126 l 518 90 q 427 9 473 33 q 315 -16 380 -16 q 125 57 200 -16 q 50 240 50 129 q 122 429 50 352 q 297 505 193 505 q 446 448 382 505 q 510 310 510 390 l 510 300 l 149 300 l 149 293 q 173 152 149 212 q 245 58 198 92 q 345 24 293 24 q 427 44 393 24 q 518 126 461 64 m 149 323 l 416 323 l 416 333 q 379 437 416 399 q 285 476 341 476 q 189 435 225 476 q 149 323 153 395 m 380 789 q 421 771 404 789 q 438 730 438 754 q 421 689 438 707 q 380 672 404 672 q 339 689 356 672 q 321 730 321 707 q 339 771 321 754 q 380 789 356 789 m 165 789 q 207 771 189 789 q 224 730 224 754 q 207 689 224 707 q 165 672 189 672 q 124 689 142 672 q 107 730 107 707 q 124 771 107 754 q 165 789 142 789 z "},"í":{"ha":318,"x_min":20,"x_max":304,"o":"m 20 0 l 20 24 q 96 37 79 24 q 113 92 113 50 l 113 393 q 97 452 113 438 q 20 467 81 467 l 20 490 l 183 505 l 207 505 l 207 92 q 224 37 207 51 q 289 24 242 24 l 289 0 l 20 0 m 137 595 l 227 872 l 304 872 l 163 595 l 137 595 z "},"ì":{"ha":318,"x_min":19,"x_max":289,"o":"m 20 0 l 20 24 q 96 37 79 24 q 113 92 113 50 l 113 393 q 97 452 113 438 q 20 467 81 467 l 20 490 l 183 505 l 207 505 l 207 92 q 224 37 207 51 q 289 24 242 24 l 289 0 l 20 0 m 19 872 l 96 872 l 186 595 l 159 595 l 19 872 z "},"î":{"ha":318,"x_min":-9,"x_max":311,"o":"m 20 0 l 20 24 q 96 37 79 24 q 113 92 113 50 l 113 393 q 97 452 113 438 q 20 467 81 467 l 20 490 l 183 505 l 207 505 l 207 92 q 224 37 207 51 q 289 24 242 24 l 289 0 l 20 0 m 134 872 l 169 872 l 311 600 l 279 600 l 146 781 l 18 600 l -9 600 l 134 872 z "},"ï":{"ha":318,"x_min":5,"x_max":336,"o":"m 20 0 l 20 24 q 96 37 79 24 q 113 92 113 50 l 113 393 q 97 452 113 438 q 20 467 81 467 l 20 490 l 183 505 l 207 505 l 207 92 q 224 37 207 51 q 289 24 242 24 l 289 0 l 20 0 m 278 789 q 319 771 302 789 q 336 730 336 754 q 319 689 336 707 q 278 672 302 672 q 237 689 254 672 q 220 730 220 707 q 237 771 220 754 q 278 789 254 789 m 64 789 q 105 771 87 789 q 122 730 122 754 q 105 689 122 707 q 64 672 87 672 q 23 689 40 672 q 5 730 5 707 q 23 771 5 754 q 64 789 40 789 z "},"ñ":{"ha":636,"x_min":14,"x_max":618,"o":"m 191 505 l 191 407 q 368 505 277 505 q 487 457 439 505 q 534 329 534 408 l 534 107 q 551 40 534 56 q 618 24 568 24 l 618 0 l 355 0 l 355 24 q 422 36 404 24 q 440 85 440 49 l 440 342 q 409 424 440 393 q 330 454 378 454 q 191 358 261 454 l 191 118 q 207 40 191 57 q 273 24 222 24 l 273 0 l 14 0 l 14 24 q 83 42 70 24 q 96 118 96 60 l 96 395 q 80 453 96 439 q 14 467 64 467 l 14 490 l 167 505 l 191 505 m 122 650 l 96 650 q 131 732 96 696 q 210 768 165 768 q 320 735 246 768 q 425 704 390 704 q 460 720 446 704 q 477 764 474 736 l 503 764 q 470 680 502 715 q 394 646 438 646 q 273 680 345 646 q 179 714 202 714 q 122 650 136 714 z "},"ó":{"ha":636,"x_min":49,"x_max":587,"o":"m 587 244 q 510 59 587 133 q 318 -16 433 -16 q 126 59 203 -16 q 49 244 49 133 q 125 431 49 357 q 318 505 202 505 q 511 431 434 505 q 587 244 587 357 m 485 244 q 440 414 485 349 q 318 478 395 478 q 196 415 241 478 q 151 244 151 352 q 196 75 151 138 q 318 12 240 12 q 440 76 396 12 q 485 244 485 140 m 215 595 l 305 872 l 382 872 l 241 595 l 215 595 z "},"ò":{"ha":636,"x_min":49,"x_max":587,"o":"m 587 244 q 510 59 587 133 q 318 -16 433 -16 q 126 59 203 -16 q 49 244 49 133 q 125 431 49 357 q 318 505 202 505 q 511 431 434 505 q 587 244 587 357 m 485 244 q 440 414 485 349 q 318 478 395 478 q 196 415 241 478 q 151 244 151 352 q 196 75 151 138 q 318 12 240 12 q 440 76 396 12 q 485 244 485 140 m 166 872 l 243 872 l 333 595 l 307 595 l 166 872 z "},"ô":{"ha":636,"x_min":49,"x_max":587,"o":"m 587 244 q 510 59 587 133 q 318 -16 433 -16 q 126 59 203 -16 q 49 244 49 133 q 125 431 49 357 q 318 505 202 505 q 511 431 434 505 q 587 244 587 357 m 485 244 q 440 414 485 349 q 318 478 395 478 q 196 415 241 478 q 151 244 151 352 q 196 75 151 138 q 318 12 240 12 q 440 76 396 12 q 485 244 485 140 m 296 872 l 332 872 l 473 600 l 442 600 l 309 781 l 181 600 l 153 600 l 296 872 z "},"ö":{"ha":636,"x_min":49,"x_max":587,"o":"m 587 244 q 510 59 587 133 q 318 -16 433 -16 q 126 59 203 -16 q 49 244 49 133 q 125 431 49 357 q 318 505 202 505 q 511 431 434 505 q 587 244 587 357 m 485 244 q 440 414 485 349 q 318 478 395 478 q 196 415 241 478 q 151 244 151 352 q 196 75 151 138 q 318 12 240 12 q 440 76 396 12 q 485 244 485 140 m 420 789 q 461 771 444 789 q 479 730 479 754 q 461 689 479 707 q 420 672 444 672 q 379 689 397 672 q 362 730 362 707 q 379 771 362 754 q 420 789 397 789 m 206 789 q 247 771 230 789 q 264 730 264 754 q 247 689 264 707 q 206 672 230 672 q 165 689 182 672 q 148 730 148 707 q 165 771 148 754 q 206 789 182 789 z "},"õ":{"ha":636,"x_min":49,"x_max":587,"o":"m 587 244 q 510 59 587 133 q 318 -16 433 -16 q 126 59 203 -16 q 49 244 49 133 q 125 431 49 357 q 318 505 202 505 q 511 431 434 505 q 587 244 587 357 m 485 244 q 440 414 485 349 q 318 478 395 478 q 196 415 241 478 q 151 244 151 352 q 196 75 151 138 q 318 12 240 12 q 440 76 396 12 q 485 244 485 140 m 136 650 l 109 650 q 144 732 110 696 q 223 768 179 768 q 334 735 260 768 q 438 704 404 704 q 473 720 459 704 q 491 764 488 736 l 516 764 q 484 680 515 715 q 408 646 452 646 q 286 680 358 646 q 193 714 216 714 q 136 650 149 714 z "},"ú":{"ha":636,"x_min":17,"x_max":619,"o":"m 511 505 l 534 505 l 534 93 q 552 38 534 52 q 619 24 569 24 l 619 0 l 440 -9 l 440 81 l 437 81 q 265 -16 363 -16 q 150 32 195 -16 q 104 150 104 79 l 104 401 q 85 453 104 439 q 17 467 66 467 l 17 490 l 175 505 l 199 505 l 199 154 q 229 73 199 102 q 310 43 259 43 q 440 123 380 43 l 440 389 q 425 452 440 439 q 345 467 409 465 l 345 490 l 511 505 m 215 595 l 305 872 l 382 872 l 241 595 l 215 595 z "},"ù":{"ha":636,"x_min":17,"x_max":619,"o":"m 511 505 l 534 505 l 534 93 q 552 38 534 52 q 619 24 569 24 l 619 0 l 440 -9 l 440 81 l 437 81 q 265 -16 363 -16 q 150 32 195 -16 q 104 150 104 79 l 104 401 q 85 453 104 439 q 17 467 66 467 l 17 490 l 175 505 l 199 505 l 199 154 q 229 73 199 102 q 310 43 259 43 q 440 123 380 43 l 440 389 q 425 452 440 439 q 345 467 409 465 l 345 490 l 511 505 m 166 872 l 243 872 l 333 595 l 307 595 l 166 872 z "},"û":{"ha":636,"x_min":17,"x_max":619,"o":"m 511 505 l 534 505 l 534 93 q 552 38 534 52 q 619 24 569 24 l 619 0 l 440 -9 l 440 81 l 437 81 q 265 -16 363 -16 q 150 32 195 -16 q 104 150 104 79 l 104 401 q 85 453 104 439 q 17 467 66 467 l 17 490 l 175 505 l 199 505 l 199 154 q 229 73 199 102 q 310 43 259 43 q 440 123 380 43 l 440 389 q 425 452 440 439 q 345 467 409 465 l 345 490 l 511 505 m 283 872 l 318 872 l 460 600 l 429 600 l 296 781 l 168 600 l 140 600 l 283 872 z "},"ü":{"ha":636,"x_min":17,"x_max":619,"o":"m 511 505 l 534 505 l 534 93 q 552 38 534 52 q 619 24 569 24 l 619 0 l 440 -9 l 440 81 l 437 81 q 265 -16 363 -16 q 150 32 195 -16 q 104 150 104 79 l 104 401 q 85 453 104 439 q 17 467 66 467 l 17 490 l 175 505 l 199 505 l 199 154 q 229 73 199 102 q 310 43 259 43 q 440 123 380 43 l 440 389 q 425 452 440 439 q 345 467 409 465 l 345 490 l 511 505 m 420 789 q 461 771 444 789 q 479 730 479 754 q 461 689 479 707 q 420 672 444 672 q 379 689 397 672 q 362 730 362 707 q 379 771 362 754 q 420 789 397 789 m 206 789 q 247 771 230 789 q 264 730 264 754 q 247 689 264 707 q 206 672 230 672 q 165 689 182 672 q 148 730 148 707 q 165 771 148 754 q 206 789 182 789 z "},"†":{"ha":579,"x_min":52,"x_max":528,"o":"m 236 733 q 289 795 236 795 q 329 780 314 795 q 345 739 345 764 q 326 648 345 716 q 298 505 298 553 q 418 528 355 505 q 475 541 455 541 q 528 493 528 541 q 513 458 528 473 q 481 443 499 443 q 414 458 459 443 q 298 481 347 481 q 350 314 298 370 q 301 -310 311 146 l 275 -310 q 228 314 271 158 q 277 481 277 376 q 157 458 212 481 q 106 444 126 444 q 52 494 52 444 q 65 530 52 517 q 102 543 79 543 q 164 528 123 543 q 277 505 229 505 q 250 661 277 551 q 236 733 236 720 z "},"°":{"ha":554,"x_min":68,"x_max":485,"o":"m 277 940 q 424 879 363 940 q 485 732 485 819 q 424 584 485 645 q 277 524 363 524 q 129 585 190 524 q 68 732 68 646 q 129 879 68 818 q 277 940 190 940 m 277 885 q 168 840 213 885 q 123 732 123 795 q 168 624 123 668 q 277 579 213 579 q 385 624 340 579 q 429 732 429 669 q 385 840 429 795 q 277 885 340 885 z "},"¢":{"ha":579,"x_min":71,"x_max":534,"o":"m 436 718 l 460 718 l 389 497 q 434 485 408 494 q 463 478 453 478 q 497 505 482 478 l 521 505 l 521 332 l 497 332 q 380 469 472 441 l 252 68 q 353 26 297 26 q 534 129 457 26 l 534 93 q 318 -16 454 -16 q 229 -1 269 -16 l 170 -186 l 146 -186 l 208 7 q 71 233 71 70 q 145 425 71 346 q 324 505 219 505 q 367 501 345 505 l 436 718 m 233 85 l 358 475 q 328 477 342 477 q 211 420 256 477 q 167 271 167 362 q 233 85 167 159 z "},"£":{"ha":636,"x_min":32,"x_max":608,"o":"m 98 -16 q 50 -3 68 -16 q 32 32 32 10 q 80 103 32 71 q 193 136 127 136 q 208 135 200 136 q 218 201 218 168 q 208 273 218 235 l 61 273 l 61 304 l 208 304 q 184 486 184 386 q 236 635 184 578 q 370 693 288 693 q 539 585 479 693 l 517 574 q 400 660 464 660 q 319 620 349 660 q 290 509 290 579 q 294 399 290 463 q 297 304 297 342 l 447 304 l 447 273 l 297 273 q 264 135 290 186 q 394 92 317 122 q 505 61 471 61 q 560 90 539 61 q 583 171 581 119 l 606 171 q 608 144 608 157 q 560 33 608 81 q 449 -16 511 -16 q 339 11 400 -16 q 235 75 277 37 q 172 10 210 35 q 98 -16 134 -16 m 193 93 q 154 100 172 100 q 89 81 120 100 q 58 41 58 62 q 67 21 58 29 q 90 12 77 12 q 148 35 119 12 q 193 93 176 57 z "},"§":{"ha":579,"x_min":77,"x_max":501,"o":"m 104 625 q 157 748 104 701 q 294 795 210 795 q 418 758 368 795 q 469 665 469 720 q 455 625 469 641 q 421 608 441 608 q 388 622 401 608 q 375 656 375 635 q 382 686 375 666 q 389 718 389 707 q 361 754 389 740 q 290 768 333 768 q 198 741 234 768 q 161 669 161 713 q 191 590 161 631 q 319 472 220 550 q 472 328 443 374 q 501 221 501 281 q 477 122 501 168 q 397 24 454 77 q 459 -60 441 -25 q 476 -134 476 -94 q 421 -261 476 -212 q 279 -310 367 -310 q 161 -271 212 -310 q 110 -180 110 -232 q 124 -138 110 -155 q 160 -122 138 -122 q 191 -136 178 -122 q 203 -170 203 -149 q 193 -207 203 -183 q 187 -229 187 -223 q 214 -267 187 -252 q 282 -282 241 -282 q 380 -254 343 -282 q 416 -179 416 -226 q 387 -102 416 -142 q 260 15 357 -62 q 119 148 161 94 q 77 268 77 201 q 102 371 77 324 q 183 467 127 417 q 104 625 104 540 m 203 444 q 131 317 131 387 q 158 240 131 278 q 285 120 184 203 q 379 41 346 71 q 435 110 419 81 q 450 168 450 138 q 410 260 450 214 q 203 444 370 306 z "},"•":{"ha":486,"x_min":87,"x_max":399,"o":"m 243 614 q 353 568 307 614 q 399 458 399 523 q 353 348 399 394 q 243 302 307 302 q 133 348 178 302 q 87 458 87 394 q 133 568 87 523 q 243 614 178 614 z "},"¶":{"ha":629,"x_min":7,"x_max":624,"o":"m 488 -301 l 488 880 l 364 880 l 364 -301 l 323 -301 l 323 425 l 311 425 q 84 486 162 425 q 7 661 7 547 q 85 847 7 776 q 298 918 163 918 l 624 918 l 618 895 q 544 870 560 889 q 528 790 528 851 l 528 -301 l 488 -301 z "},"ß":{"ha":636,"x_min":8,"x_max":591,"o":"m 458 664 q 319 844 458 844 q 216 791 245 844 q 186 600 186 737 l 186 79 q 200 38 186 50 q 258 24 214 27 l 258 0 l 8 0 l 8 24 q 76 38 60 24 q 92 107 92 53 l 92 576 q 156 796 92 718 q 334 873 220 873 q 496 809 432 873 q 561 664 561 745 q 387 468 561 522 l 387 465 q 539 391 486 450 q 591 237 591 332 q 530 61 591 127 q 366 -4 469 -4 q 315 0 342 -4 l 300 98 l 325 98 q 392 22 347 22 q 463 76 437 22 q 489 222 489 129 q 445 400 489 345 q 300 454 401 454 l 300 478 q 424 527 389 486 q 458 664 458 568 z "},"®":{"ha":1055,"x_min":47,"x_max":1007,"o":"m 443 440 l 418 433 l 418 285 q 435 206 418 223 q 507 189 452 189 l 503 165 l 253 165 l 258 189 q 326 205 313 189 q 339 285 339 221 l 339 642 q 324 712 339 694 q 265 730 309 730 l 254 730 l 258 751 l 486 751 q 638 711 584 751 q 692 602 692 671 q 651 503 692 541 q 541 457 611 465 l 671 278 q 736 208 711 223 q 804 189 761 192 l 800 165 l 667 165 l 467 433 l 443 440 m 418 711 l 418 468 l 447 468 q 563 505 522 468 q 604 608 604 542 q 570 692 604 662 q 476 722 536 722 q 418 711 448 722 m 526 895 q 213 765 343 895 q 83 452 83 635 q 213 137 83 268 q 526 7 343 7 q 841 137 710 7 q 971 452 971 268 q 841 765 971 635 q 526 895 710 895 m 526 930 q 767 866 656 930 q 943 691 878 802 q 1007 452 1007 581 q 943 211 1007 322 q 767 35 878 100 q 526 -29 656 -29 q 287 35 397 -29 q 112 211 176 100 q 47 452 47 322 q 112 692 47 581 q 286 866 176 802 q 526 930 397 930 z "},"©":{"ha":1055,"x_min":47,"x_max":1007,"o":"m 721 771 l 742 771 l 754 570 l 733 570 q 664 693 713 650 q 541 736 614 736 q 392 660 449 736 q 335 461 335 584 q 393 267 335 338 q 553 196 452 196 q 660 223 613 196 q 754 314 707 251 l 768 304 q 532 155 682 155 q 325 241 407 155 q 243 456 243 326 q 327 675 243 586 q 534 765 412 765 q 645 743 586 765 q 693 730 677 730 q 721 771 717 730 m 526 895 q 213 765 343 895 q 83 452 83 635 q 213 137 83 268 q 526 7 343 7 q 841 137 710 7 q 971 452 971 268 q 841 765 971 635 q 526 895 710 895 m 526 930 q 767 866 656 930 q 943 691 878 802 q 1007 452 1007 581 q 943 211 1007 322 q 767 35 878 100 q 526 -29 656 -29 q 287 35 397 -29 q 112 211 176 100 q 47 452 47 322 q 112 692 47 581 q 286 866 176 802 q 526 930 397 930 z "},"™":{"ha":1361,"x_min":77,"x_max":1297,"o":"m 418 396 l 431 396 l 431 372 l 186 372 l 186 396 l 207 396 q 254 416 242 396 q 267 498 267 435 l 267 888 l 189 888 q 125 866 146 888 q 100 795 104 844 l 77 795 l 77 921 l 541 921 l 541 795 l 517 795 q 490 870 510 852 q 412 888 470 888 l 350 888 l 350 511 q 363 418 350 441 q 418 396 376 396 m 582 899 l 582 921 l 746 921 l 945 496 l 1140 921 l 1297 921 l 1297 899 l 1276 899 q 1230 884 1243 899 q 1217 833 1217 870 l 1217 503 q 1229 415 1217 433 q 1296 396 1242 398 l 1296 372 l 1061 372 l 1061 396 q 1126 415 1112 396 q 1140 503 1140 434 l 1140 839 l 929 372 l 918 372 l 700 831 l 700 468 q 713 408 700 419 q 778 396 726 396 l 778 372 l 582 372 l 582 396 q 649 410 636 396 q 663 473 663 425 l 663 822 q 647 880 663 865 q 582 899 631 895 z "},"´":{"ha":463,"x_min":172,"x_max":339,"o":"m 172 595 l 262 872 l 339 872 l 199 595 l 172 595 z "},"¨":{"ha":463,"x_min":66,"x_max":397,"o":"m 339 789 q 380 771 363 789 q 397 730 397 754 q 380 689 397 707 q 339 672 363 672 q 298 689 315 672 q 281 730 281 707 q 298 771 281 754 q 339 789 315 789 m 125 789 q 166 771 149 789 q 183 730 183 754 q 166 689 183 707 q 125 672 149 672 q 84 689 101 672 q 66 730 66 707 q 84 771 66 754 q 125 789 101 789 z "},"≠":{"ha":762,"x_min":21,"x_max":750,"o":"m 750 189 l 329 189 l 204 -35 l 136 4 l 239 189 l 21 189 l 21 265 l 282 265 l 389 458 l 21 458 l 21 534 l 432 534 l 558 762 l 627 724 l 521 534 l 750 534 l 750 458 l 479 458 l 371 265 l 750 265 l 750 189 z "},"Æ":{"ha":1071,"x_min":20,"x_max":1028,"o":"m 930 492 l 954 492 l 954 297 l 930 297 q 903 360 922 342 q 842 378 883 378 l 647 378 l 647 115 q 664 55 647 72 q 725 39 681 39 l 802 39 q 946 57 913 39 q 1004 146 979 75 l 1028 146 l 993 0 l 453 0 l 453 24 q 524 52 506 24 q 542 151 542 79 l 542 378 l 350 378 l 240 176 q 208 85 208 118 q 275 24 208 37 l 275 0 l 20 0 l 20 24 q 111 54 80 26 q 199 187 142 82 l 530 795 l 993 795 l 993 660 l 977 660 q 938 734 964 711 q 863 757 911 757 l 647 757 l 647 416 l 827 416 q 902 431 882 416 q 930 492 922 445 m 371 416 l 542 416 l 542 733 l 539 733 l 371 416 z "},"Ø":{"ha":1013,"x_min":82,"x_max":930,"o":"m 262 147 l 730 676 q 637 756 695 728 q 511 785 579 785 q 288 678 371 785 q 204 393 204 572 q 262 147 204 253 m 871 795 l 793 708 q 895 570 859 650 q 930 401 930 490 q 807 102 930 224 q 505 -20 684 -20 q 232 77 360 -20 l 121 -49 l 104 -32 l 215 93 q 117 232 153 150 q 82 401 82 313 q 204 697 82 578 q 509 815 326 815 q 652 791 581 815 q 774 724 722 766 l 854 815 l 871 795 m 746 654 l 277 126 q 504 11 354 11 q 724 122 640 11 q 808 401 808 233 q 746 654 808 555 z "},"∞":{"ha":990,"x_min":36,"x_max":954,"o":"m 443 453 q 551 604 491 568 q 694 640 610 640 q 879 561 804 640 q 954 357 954 482 q 879 151 954 231 q 717 72 803 72 q 601 115 652 72 q 489 267 550 157 q 269 109 410 109 q 102 179 168 109 q 36 358 36 250 q 96 536 36 465 q 244 607 157 607 q 345 578 298 607 q 443 453 392 550 m 509 315 q 600 179 552 222 q 720 136 648 136 q 860 198 805 136 q 916 357 916 260 q 859 519 916 452 q 724 587 802 587 q 657 573 686 587 q 607 531 629 558 q 564 452 585 503 l 509 315 m 416 378 l 424 400 q 243 546 359 546 q 121 494 168 546 q 74 359 74 442 q 119 219 74 276 q 229 161 164 161 q 331 205 285 161 q 416 378 376 250 z "},"±":{"ha":926,"x_min":98,"x_max":828,"o":"m 98 522 l 98 582 l 433 582 l 433 917 l 493 917 l 493 582 l 828 582 l 828 522 l 493 522 l 493 187 l 433 187 l 433 522 l 98 522 m 98 -25 l 98 35 l 828 35 l 828 -25 l 98 -25 z "},"≤":{"ha":762,"x_min":40,"x_max":730,"o":"m 730 163 l 40 482 l 40 568 l 730 888 l 730 802 l 129 525 l 730 249 l 730 163 m 730 0 l 40 0 l 40 76 l 730 76 l 730 0 z "},"≥":{"ha":762,"x_min":40,"x_max":730,"o":"m 730 482 l 40 163 l 40 249 l 642 525 l 40 802 l 40 888 l 730 568 l 730 482 m 730 0 l 40 0 l 40 76 l 730 76 l 730 0 z "},"¥":{"ha":782,"x_min":29,"x_max":749,"o":"m 749 400 l 441 400 l 441 258 l 749 258 l 749 220 l 441 220 l 441 150 q 460 51 441 77 q 529 24 479 24 l 529 0 l 239 0 l 239 24 q 317 52 297 24 q 336 150 336 81 l 336 220 l 29 220 l 29 258 l 336 258 l 336 400 l 29 400 l 29 439 l 334 439 l 189 664 q 120 750 146 730 q 47 772 94 770 l 47 795 l 358 795 l 358 772 q 276 736 276 772 q 293 693 276 720 l 425 486 l 532 653 q 558 728 558 696 q 507 772 558 772 l 507 795 l 725 795 l 725 772 q 656 752 681 770 q 599 682 632 735 l 444 439 l 749 439 l 749 400 z "},"µ":{"ha":708,"x_min":97,"x_max":656,"o":"m 140 115 l 140 505 l 235 505 l 235 154 q 265 73 235 103 q 346 43 295 43 q 476 123 416 43 l 476 505 l 571 505 l 571 93 q 588 38 571 52 q 656 24 606 24 l 656 0 l 476 -9 l 476 81 l 473 81 q 300 -16 401 -16 q 175 41 222 -16 l 174 4 q 196 -134 174 -77 q 208 -189 208 -165 q 193 -228 208 -212 q 154 -243 177 -243 q 114 -228 131 -243 q 97 -191 97 -212 q 109 -138 97 -170 q 140 115 140 -50 z "},"∂":{"ha":686,"x_min":45,"x_max":675,"o":"m 200 760 l 170 760 q 427 965 258 965 q 605 879 536 965 q 675 624 675 793 q 563 180 675 381 q 273 -21 452 -21 q 106 41 168 -21 q 45 207 45 102 q 158 492 45 369 q 418 615 271 615 q 629 486 568 615 l 632 486 q 639 612 639 584 q 576 800 639 731 q 404 868 513 868 q 200 760 273 868 m 618 427 q 425 579 563 579 q 231 450 304 579 q 158 179 158 321 q 195 62 158 106 q 292 18 231 18 q 481 129 384 18 q 618 427 578 239 z "},"∑":{"ha":990,"x_min":20,"x_max":965,"o":"m 965 161 q 928 -1 943 77 q 905 -150 913 -79 q 836 -139 863 -142 q 799 -135 809 -135 l 100 -135 q 60 -137 86 -135 q 20 -139 33 -139 l 504 414 l 22 1044 q 106 1037 70 1040 q 167 1035 142 1035 l 857 1035 l 865 814 l 838 814 q 802 909 817 883 q 747 954 787 936 q 696 968 726 963 q 625 972 666 972 l 260 972 l 639 475 l 231 4 l 746 4 q 866 39 832 4 q 933 161 901 75 l 965 161 z "},"∏":{"ha":1143,"x_min":35,"x_max":1116,"o":"m 1116 -140 l 689 -140 l 689 -109 q 797 -81 770 -109 q 824 4 824 -53 l 824 966 l 326 966 l 326 4 q 353 -81 326 -53 q 461 -109 380 -109 l 461 -140 l 35 -140 l 35 -109 q 143 -81 117 -109 q 170 4 170 -53 l 170 873 q 137 977 170 942 q 37 1011 104 1011 l 37 1043 l 1113 1043 l 1113 1011 q 1014 977 1046 1011 q 981 873 981 942 l 981 4 q 1007 -81 981 -53 q 1116 -109 1033 -109 l 1116 -140 z "},"π":{"ha":762,"x_min":14,"x_max":736,"o":"m 736 210 q 685 41 732 104 q 571 -22 637 -22 q 477 40 517 -22 q 437 231 437 102 q 438 285 437 259 q 441 334 439 311 l 465 557 l 309 557 q 242 53 268 134 q 153 -27 216 -27 q 103 -6 127 -27 q 79 50 79 15 q 129 137 79 81 q 183 239 178 193 l 224 557 l 158 557 q 105 544 131 557 q 66 513 79 530 l 37 469 l 14 469 q 95 624 47 572 q 207 676 144 676 l 725 676 l 725 557 l 550 557 q 537 394 542 475 q 533 231 533 313 q 559 140 533 175 q 623 106 585 106 q 673 125 647 106 q 703 176 699 144 q 706 199 705 191 q 707 210 707 208 l 736 210 z "},"∫":{"ha":380,"x_min":7,"x_max":408,"o":"m 408 1194 q 388 1150 408 1167 q 337 1133 368 1133 q 296 1150 312 1133 q 267 1167 281 1167 q 248 1157 254 1167 q 241 1128 241 1147 q 255 954 241 1105 q 268 581 268 804 q 248 99 268 238 q 194 -92 227 -39 q 148 -134 176 -120 q 90 -149 120 -149 q 32 -125 57 -149 q 7 -67 7 -101 q 24 -23 7 -41 q 68 -5 41 -5 q 112 -27 91 -5 q 142 -50 134 -50 q 169 -19 159 -50 q 179 85 179 11 q 175 218 179 110 q 171 600 171 327 q 182 1033 171 926 q 210 1179 194 1139 q 257 1249 230 1226 q 314 1272 284 1272 q 380 1250 353 1272 q 408 1194 408 1228 z "},"ª":{"ha":334,"x_min":25,"x_max":325,"o":"m 201 689 l 201 718 q 183 762 201 745 q 135 779 164 779 q 53 718 81 779 l 29 718 q 74 789 41 763 q 153 815 107 815 q 237 786 203 815 q 271 708 271 758 l 271 579 q 283 539 271 539 q 301 567 296 539 l 325 567 q 306 523 325 540 q 257 505 287 505 q 201 539 216 505 q 119 505 163 505 q 53 528 80 505 q 25 583 25 551 q 47 633 25 613 q 145 672 70 652 q 201 689 183 682 m 201 567 l 201 667 q 115 632 135 648 q 96 587 96 616 q 109 550 96 565 q 142 534 122 534 q 201 567 176 534 z "},"º":{"ha":406,"x_min":25,"x_max":382,"o":"m 25 660 q 74 772 25 730 q 203 815 123 815 q 332 772 283 815 q 382 660 382 729 q 332 548 382 591 q 203 505 282 505 q 74 548 123 505 q 25 660 25 591 m 100 660 q 127 561 100 596 q 203 525 154 525 q 279 561 252 525 q 307 660 307 597 q 280 760 307 724 q 203 795 252 795 q 127 760 154 795 q 100 660 100 724 z "},"Ω":{"ha":1067,"x_min":47,"x_max":1021,"o":"m 1021 0 l 612 0 l 634 211 q 787 347 743 251 q 831 559 831 442 q 759 812 831 713 q 534 911 686 911 q 310 812 382 911 q 237 559 237 713 q 281 347 237 442 q 435 211 326 251 l 457 0 l 47 0 l 47 225 l 68 225 q 95 160 79 180 q 160 140 111 140 l 379 140 l 376 179 q 145 329 215 223 q 75 554 75 435 q 205 843 75 730 q 534 956 336 956 q 863 843 733 956 q 994 554 994 730 q 924 329 994 435 q 692 179 854 223 l 690 140 l 909 140 q 974 160 958 140 q 1001 225 990 180 l 1021 225 l 1021 0 z "},"æ":{"ha":854,"x_min":46,"x_max":800,"o":"m 189 -16 q 86 22 126 -16 q 46 119 46 60 q 67 187 46 159 q 116 230 88 215 q 210 257 144 245 q 334 298 295 273 l 334 325 q 301 417 334 382 q 216 452 269 452 q 134 425 173 452 q 78 350 96 398 l 54 350 q 121 463 66 420 q 253 505 176 505 q 406 429 349 505 q 489 488 450 471 q 579 505 528 505 q 730 449 670 505 q 790 300 790 393 l 435 300 q 432 253 432 275 q 486 85 432 146 q 619 24 541 24 q 714 48 672 24 q 800 129 756 73 l 800 92 q 713 13 767 41 q 595 -16 659 -16 q 364 92 449 -16 q 189 -16 289 -16 m 334 142 l 334 267 q 280 246 322 259 q 170 194 199 221 q 142 127 142 167 q 168 64 142 91 q 228 37 193 37 q 301 66 269 37 q 334 142 334 95 m 436 323 l 699 323 q 660 436 699 393 q 566 479 622 479 q 472 436 509 479 q 436 323 436 392 z "},"ø":{"ha":636,"x_min":49,"x_max":587,"o":"m 52 -31 l 127 56 q 49 244 49 131 q 125 431 49 357 q 318 505 202 505 q 485 456 404 505 l 550 528 l 567 513 l 500 440 q 587 244 587 368 q 510 59 587 133 q 318 -16 433 -16 q 146 41 222 -16 l 69 -45 l 52 -31 m 176 110 l 443 407 q 318 478 399 478 q 196 415 241 478 q 151 244 151 352 q 176 110 151 165 m 454 387 l 187 87 q 318 12 234 12 q 440 76 396 12 q 485 244 485 140 q 454 387 485 337 z "},"¿":{"ha":435,"x_min":41,"x_max":358,"o":"m 240 240 l 240 283 l 267 283 l 267 129 q 247 56 267 89 q 167 -27 228 22 q 96 -98 113 -71 q 79 -157 79 -125 q 119 -235 79 -205 q 225 -265 159 -265 q 294 -254 267 -265 q 358 -212 321 -243 l 358 -244 q 216 -326 302 -326 q 92 -263 142 -326 q 41 -109 41 -200 q 62 -8 41 -50 q 146 82 82 33 q 222 160 205 126 q 240 240 240 194 m 241 334 q 195 353 214 334 q 176 399 176 372 q 196 446 176 426 q 241 465 215 465 q 289 446 269 465 q 309 399 309 426 q 289 353 309 372 q 241 334 269 334 z "},"¡":{"ha":406,"x_min":138,"x_max":269,"o":"m 149 -244 l 191 253 l 212 253 l 249 -244 q 253 -325 253 -307 q 238 -376 253 -356 q 199 -396 222 -396 q 158 -376 174 -396 q 142 -325 142 -357 q 146 -267 142 -308 l 149 -244 m 203 329 q 157 348 176 329 q 138 395 138 368 q 157 441 138 422 q 203 461 176 461 q 250 441 230 461 q 269 395 269 422 q 250 348 269 368 q 203 329 230 329 z "},"¬":{"ha":926,"x_min":98,"x_max":828,"o":"m 98 575 l 98 635 l 828 635 l 828 261 l 768 261 l 768 575 l 98 575 z "},"√":{"ha":762,"x_min":14,"x_max":715,"o":"m 715 1267 l 507 -53 l 170 644 l 36 579 l 14 625 l 216 725 l 490 165 l 667 1274 l 715 1267 z "},"ƒ":{"ha":868,"x_min":-4,"x_max":873,"o":"m 553 457 l 648 457 l 648 419 l 547 419 l 456 -74 q 349 -303 428 -224 q 155 -382 269 -382 q -4 -350 52 -382 l 18 -248 l 41 -248 q 160 -354 68 -354 q 256 -328 209 -354 q 332 -241 302 -302 q 386 -50 362 -180 l 472 419 l 376 419 l 376 457 l 479 457 l 522 656 q 603 806 543 751 q 747 861 663 861 q 842 843 787 861 l 846 860 l 873 860 l 848 734 l 821 734 q 789 810 810 787 q 732 833 768 833 q 649 789 684 833 q 597 669 613 745 l 553 457 z "},"≈":{"ha":762,"x_min":35,"x_max":728,"o":"m 693 593 l 728 593 q 663 431 713 488 q 536 375 612 375 q 330 454 471 375 q 187 507 236 507 q 66 380 86 507 l 35 380 q 98 542 48 485 q 221 599 148 599 q 294 586 253 599 q 446 513 334 572 q 576 471 526 471 q 693 593 674 471 m 693 330 l 728 330 q 663 169 713 225 q 536 113 612 113 q 354 178 471 113 q 187 244 237 244 q 66 118 86 244 l 35 118 q 98 278 48 222 q 221 335 148 335 q 297 320 253 335 q 446 250 341 306 q 576 208 526 208 q 693 330 674 208 z "},"∆":{"ha":850,"x_min":8,"x_max":844,"o":"m 453 956 l 844 0 l 8 0 l 453 956 m 403 718 l 100 68 l 672 68 l 403 718 z "},"«":{"ha":579,"x_min":36,"x_max":550,"o":"m 550 479 l 371 225 l 550 -29 l 522 -29 l 260 225 l 522 479 l 550 479 m 326 479 l 147 225 l 326 -29 l 298 -29 l 36 225 l 298 479 l 326 479 z "},"»":{"ha":579,"x_min":29,"x_max":543,"o":"m 254 -29 l 432 225 l 254 479 l 282 479 l 543 225 l 282 -29 l 254 -29 m 29 -29 l 207 225 l 29 479 l 57 479 l 318 225 l 57 -29 l 29 -29 z "},"…":{"ha":1389,"x_min":165,"x_max":1222,"o":"m 694 97 q 741 78 722 97 q 760 32 760 59 q 740 -15 760 5 q 694 -35 721 -35 q 648 -15 667 -35 q 628 32 628 5 q 648 78 628 58 q 694 97 667 97 m 231 97 q 277 78 258 97 q 297 32 297 58 q 277 -15 297 5 q 231 -35 258 -35 q 185 -15 204 -35 q 165 32 165 5 q 184 78 165 59 q 231 97 203 97 m 1156 97 q 1202 78 1183 97 q 1222 32 1222 58 q 1202 -15 1222 5 q 1156 -35 1183 -35 q 1110 -15 1129 -35 q 1090 32 1090 5 q 1109 78 1090 59 q 1156 97 1128 97 z "}," ":{"ha":313,"x_min":0,"x_max":0,"o":""},"À":{"ha":825,"x_min":31,"x_max":794,"o":"m 514 0 l 514 24 q 583 71 583 24 q 576 102 583 85 l 504 322 l 248 322 l 193 163 q 173 75 173 102 q 236 24 173 25 l 236 0 l 31 0 l 31 24 q 99 53 75 30 q 149 149 123 76 l 368 804 l 450 804 l 681 119 q 723 41 701 59 q 794 24 745 24 l 794 0 l 514 0 m 262 371 l 486 371 l 374 708 l 262 371 m 305 1120 l 382 1120 l 472 842 l 446 842 l 305 1120 z "},"Ã":{"ha":825,"x_min":31,"x_max":794,"o":"m 514 0 l 514 24 q 583 71 583 24 q 576 102 583 85 l 504 322 l 248 322 l 193 163 q 173 75 173 102 q 236 24 173 25 l 236 0 l 31 0 l 31 24 q 99 53 75 30 q 149 149 123 76 l 368 804 l 450 804 l 681 119 q 723 41 701 59 q 794 24 745 24 l 794 0 l 514 0 m 262 371 l 486 371 l 374 708 l 262 371 m 236 897 l 210 897 q 245 980 210 944 q 323 1016 279 1016 q 434 983 360 1016 q 538 951 504 951 q 574 968 559 951 q 591 1011 588 984 l 616 1011 q 584 928 616 962 q 508 893 552 893 q 387 928 458 893 q 293 962 316 962 q 236 897 250 962 z "},"Õ":{"ha":1013,"x_min":82,"x_max":930,"o":"m 82 401 q 204 697 82 578 q 509 815 326 815 q 808 695 686 815 q 930 401 930 575 q 807 102 930 224 q 505 -20 684 -20 q 205 102 328 -20 q 82 401 82 224 m 204 400 q 287 118 204 226 q 504 11 370 11 q 724 121 640 11 q 808 395 808 231 q 726 678 808 571 q 511 785 643 785 q 288 680 372 785 q 204 400 204 574 m 330 897 l 303 897 q 338 980 304 944 q 417 1016 373 1016 q 528 983 454 1016 q 632 951 597 951 q 667 968 653 951 q 685 1011 682 984 l 710 1011 q 677 928 709 962 q 602 893 646 893 q 480 928 552 893 q 387 962 410 962 q 330 897 343 962 z "},"Œ":{"ha":1274,"x_min":86,"x_max":1226,"o":"m 746 795 l 1192 795 l 1192 664 l 1173 664 q 1138 735 1168 713 q 1040 757 1107 757 l 832 757 l 832 419 l 1051 419 q 1104 435 1086 419 q 1133 496 1121 451 l 1156 496 l 1156 304 l 1133 304 q 1104 364 1124 348 q 1042 380 1084 380 l 832 380 l 832 115 q 850 55 832 71 q 914 39 867 39 l 1002 39 q 1142 64 1099 39 q 1204 151 1186 89 l 1226 151 l 1192 0 l 650 0 l 557 -2 l 514 -3 q 211 115 335 -3 q 86 403 86 233 q 144 604 86 508 q 303 751 203 699 q 532 803 403 803 q 650 799 576 803 l 746 795 m 726 131 l 726 657 q 692 747 726 721 q 543 772 658 772 q 299 671 391 772 q 208 399 208 569 q 297 127 208 226 q 546 28 387 28 q 652 37 608 28 q 711 66 696 46 q 726 131 726 87 z "},"œ":{"ha":999,"x_min":52,"x_max":957,"o":"m 734 505 q 886 446 821 505 q 950 306 950 387 l 950 300 l 587 300 q 587 279 587 290 q 613 144 587 202 q 688 51 639 85 q 785 16 738 16 q 957 125 869 16 l 957 89 q 863 6 907 28 q 753 -16 820 -16 q 634 8 685 -16 q 538 85 584 31 q 322 -16 448 -16 q 129 59 206 -16 q 52 244 52 133 q 128 429 52 353 q 315 505 205 505 q 538 403 454 505 q 734 505 612 505 m 589 323 l 856 323 q 724 478 844 478 q 629 438 665 478 q 589 323 594 397 m 485 244 q 442 416 485 353 q 321 479 399 479 q 199 414 243 479 q 154 244 154 348 q 199 77 154 142 q 321 12 243 12 q 441 74 397 12 q 485 244 485 135 z "},"–":{"ha":694,"x_min":-8,"x_max":703,"o":"m -8 245 l -8 277 l 703 277 l 703 245 l -8 245 z "},"—":{"ha":1389,"x_min":-8,"x_max":1397,"o":"m -8 245 l -8 277 l 1397 277 l 1397 245 l -8 245 z "},"“":{"ha":435,"x_min":12,"x_max":403,"o":"m 403 872 l 403 848 q 328 786 350 822 q 306 693 306 751 q 310 673 306 677 q 330 668 314 668 q 382 649 361 668 q 403 602 403 629 q 383 556 403 575 q 336 536 363 536 q 262 573 291 536 q 233 669 233 610 q 280 798 233 741 q 403 872 328 854 m 182 872 l 182 848 q 106 787 128 822 q 85 693 85 752 q 89 672 85 677 q 110 668 94 668 q 161 649 140 668 q 182 602 182 629 q 162 556 182 575 q 115 536 142 536 q 41 573 70 536 q 12 669 12 610 q 60 798 12 741 q 182 872 107 854 z "},"”":{"ha":435,"x_min":32,"x_max":422,"o":"m 32 536 l 32 559 q 107 623 86 588 q 129 715 129 658 q 124 736 129 731 q 104 741 120 741 q 53 760 74 741 q 32 807 32 779 q 52 853 32 833 q 98 872 71 872 q 173 835 144 872 q 201 739 201 798 q 154 610 201 667 q 32 536 107 553 m 253 536 l 253 559 q 328 622 306 587 q 350 715 350 658 q 346 736 350 731 q 325 741 341 741 q 274 760 295 741 q 253 807 253 779 q 273 853 253 833 q 319 872 292 872 q 394 835 365 872 q 422 739 422 798 q 375 611 422 667 q 253 536 328 554 z "},"‘":{"ha":406,"x_min":138,"x_max":289,"o":"m 289 872 l 289 848 q 203 701 203 797 q 209 682 203 689 q 236 669 215 675 q 273 649 264 662 q 282 614 282 636 q 266 572 282 588 q 222 555 249 555 q 161 584 184 555 q 138 660 138 612 q 179 793 138 736 q 289 872 220 851 z "},"’":{"ha":406,"x_min":117,"x_max":268,"o":"m 117 555 l 117 579 q 203 726 203 629 q 197 746 203 739 q 170 758 191 753 q 133 779 142 766 q 123 814 123 791 q 140 856 123 840 q 183 872 157 872 q 245 844 222 872 q 268 768 268 815 q 227 634 268 692 q 117 555 186 576 z "},"÷":{"ha":928,"x_min":98,"x_max":828,"o":"m 463 211 q 492 199 480 211 q 504 170 504 187 q 492 140 504 152 q 463 127 480 127 q 433 140 445 127 q 421 170 421 152 q 433 199 421 187 q 463 211 445 211 m 463 760 q 492 748 480 760 q 504 718 504 736 q 492 688 504 701 q 463 676 480 676 q 433 688 445 676 q 421 718 421 701 q 433 748 421 736 q 463 760 445 760 m 98 414 l 98 473 l 828 473 l 828 414 l 98 414 z "},"◊":{"ha":686,"x_min":31,"x_max":652,"o":"m 652 517 l 383 0 l 300 0 l 31 517 l 300 1035 l 383 1035 l 652 517 m 569 517 l 342 960 l 115 517 l 342 75 l 569 517 z "},"ÿ":{"ha":579,"x_min":22,"x_max":562,"o":"m 258 490 l 258 467 q 216 424 216 460 q 224 392 216 410 l 342 114 l 428 374 q 438 425 438 406 q 389 467 438 464 l 389 490 l 562 490 l 562 467 q 497 440 523 467 q 450 351 471 413 l 254 -228 q 182 -359 226 -311 q 92 -407 138 -407 q 31 -386 64 -407 l 62 -301 q 110 -313 88 -313 q 183 -285 154 -313 q 235 -192 212 -257 l 298 -14 l 122 393 q 83 452 102 437 q 22 467 64 466 l 22 490 l 258 490 m 407 789 q 448 771 431 789 q 465 730 465 754 q 448 689 465 707 q 407 672 431 672 q 366 689 383 672 q 349 730 349 707 q 366 771 349 754 q 407 789 383 789 m 193 789 q 234 771 216 789 q 251 730 251 754 q 234 689 251 707 q 193 672 216 672 q 152 689 169 672 q 134 730 134 707 q 152 771 134 754 q 193 789 169 789 z "},"Ÿ":{"ha":782,"x_min":25,"x_max":747,"o":"m 621 682 l 441 400 l 441 150 q 460 51 441 77 q 529 24 479 24 l 529 0 l 239 0 l 239 24 q 317 52 298 24 q 336 150 336 81 l 336 400 l 167 664 q 98 750 125 730 q 25 772 72 770 l 25 795 l 336 795 l 336 772 q 254 735 254 772 q 271 693 254 718 l 428 452 l 554 652 q 582 728 582 696 q 529 772 582 772 l 529 795 l 747 795 l 747 772 q 679 753 703 770 q 621 682 655 736 m 499 1036 q 540 1019 523 1036 q 557 978 557 1002 q 540 937 557 954 q 499 920 523 920 q 458 937 475 920 q 441 978 441 954 q 458 1019 441 1002 q 499 1036 475 1036 m 285 1036 q 326 1019 309 1036 q 343 978 343 1002 q 326 937 343 954 q 285 920 309 920 q 244 937 261 920 q 227 978 227 954 q 244 1019 227 1002 q 285 1036 261 1036 z "},"∕":{"ha":203,"x_min":-211,"x_max":414,"o":"m 367 815 l 414 815 l -170 0 l -211 0 l 367 815 z "},"€":{"ha":636,"x_min":22,"x_max":595,"o":"m 201 432 l 201 424 q 203 361 201 372 l 471 361 l 464 330 l 204 330 q 385 31 230 31 q 574 180 498 31 l 595 161 q 358 -20 513 -20 q 182 74 254 -20 q 97 330 110 167 l 22 330 l 29 361 l 96 361 l 96 376 q 97 432 96 421 l 22 432 l 29 463 l 98 463 q 184 722 115 628 q 368 815 254 815 q 481 791 427 815 q 510 782 500 782 q 553 807 541 782 l 575 807 l 575 585 l 551 585 q 479 742 523 700 q 374 785 435 785 q 253 703 299 785 q 201 463 208 621 l 493 463 l 488 432 l 201 432 z "},"‹":{"ha":361,"x_min":39,"x_max":329,"o":"m 329 479 l 150 225 l 329 -29 l 300 -29 l 39 225 l 300 479 l 329 479 z "},"›":{"ha":361,"x_min":32,"x_max":322,"o":"m 32 -29 l 211 225 l 32 479 l 61 479 l 322 225 l 61 -29 l 32 -29 z "},"":{"ha":636,"x_min":18,"x_max":610,"o":"m 437 81 l 437 378 q 427 442 437 430 q 374 454 416 454 l 193 454 l 193 89 q 211 38 193 52 q 275 24 228 24 l 275 0 l 18 0 l 18 24 q 83 38 68 24 q 98 96 98 53 l 98 454 l 31 454 l 31 478 q 98 511 74 496 q 172 778 105 683 q 353 872 238 872 q 525 833 446 872 l 473 705 l 453 713 q 454 734 454 724 q 423 816 454 785 q 343 847 391 847 q 232 792 271 847 q 193 639 193 736 l 193 490 l 387 490 q 504 505 460 490 l 532 505 l 532 78 q 549 35 532 47 q 610 24 566 24 l 610 0 l 359 0 l 359 24 q 437 81 437 24 z "},"":{"ha":636,"x_min":21,"x_max":610,"o":"m 437 123 l 437 694 q 314 847 437 847 q 224 809 258 847 q 191 707 191 771 l 191 490 l 357 490 l 357 454 l 191 454 l 191 92 q 208 39 191 54 q 269 24 226 24 l 269 0 l 21 0 l 21 24 q 80 37 64 24 q 96 85 96 50 l 96 454 l 28 454 l 28 478 q 96 511 75 496 l 96 618 q 157 803 96 733 q 319 872 218 872 q 447 838 378 872 q 510 872 472 846 l 532 872 l 532 100 q 548 38 532 52 q 610 24 565 24 l 610 0 l 357 0 l 357 24 q 414 31 401 24 q 432 57 427 38 q 437 123 437 77 z "},"‡":{"ha":579,"x_min":61,"x_max":517,"o":"m 64 532 q 78 563 64 551 q 113 575 92 575 q 178 561 136 575 q 264 543 229 543 q 279 543 272 543 q 258 646 279 572 q 239 739 239 714 q 254 779 239 762 q 292 795 270 795 q 342 737 342 795 q 323 644 342 700 q 301 543 304 587 q 409 562 340 543 q 468 574 452 574 q 503 561 489 574 q 517 529 517 549 q 502 497 517 509 q 463 485 487 485 q 406 498 444 485 q 301 519 346 519 l 301 508 q 311 450 301 477 q 350 382 321 422 q 302 244 302 296 q 349 103 302 172 q 301 -32 302 16 q 408 -13 351 -32 q 460 -1 441 -1 q 500 -13 485 -1 q 515 -45 515 -25 q 500 -76 515 -62 q 465 -89 485 -89 q 397 -75 448 -89 q 301 -56 332 -56 q 321 -156 301 -101 q 339 -243 339 -206 q 325 -292 339 -273 q 288 -310 311 -310 q 251 -293 265 -310 q 236 -250 236 -276 q 256 -164 236 -214 q 279 -56 279 -106 q 178 -75 242 -57 q 111 -87 130 -87 q 75 -74 90 -87 q 61 -41 61 -61 q 117 -1 61 -1 q 168 -12 134 -1 q 279 -32 226 -32 q 232 103 274 46 q 279 250 279 168 q 272 297 279 275 q 232 382 265 319 q 271 457 263 433 q 279 508 279 481 l 279 519 l 275 519 q 184 502 233 519 q 117 488 144 488 q 79 500 94 488 q 64 532 64 512 z "},"·":{"ha":406,"x_min":136,"x_max":268,"o":"m 203 481 q 249 461 230 481 q 268 415 268 442 q 249 368 268 388 q 203 349 229 349 q 156 368 176 349 q 136 415 136 388 q 156 461 136 442 q 203 481 176 481 z "},"‚":{"ha":406,"x_min":122,"x_max":292,"o":"m 122 -239 l 122 -215 q 220 -60 220 -171 q 215 -39 220 -44 q 195 -35 211 -35 q 143 -15 164 -35 q 122 32 122 4 q 142 78 122 59 q 189 97 161 97 q 263 60 235 97 q 292 -36 292 22 q 244 -165 292 -109 q 122 -239 197 -221 z "},"„":{"ha":435,"x_min":25,"x_max":407,"o":"m 237 -239 l 237 -215 q 313 -153 291 -188 q 335 -60 335 -118 q 331 -39 335 -44 q 310 -35 326 -35 q 258 -15 279 -35 q 237 32 237 4 q 257 78 237 59 q 304 97 277 97 q 378 60 350 97 q 407 -36 407 22 q 360 -165 407 -109 q 237 -239 313 -221 m 25 -239 l 25 -215 q 101 -153 79 -187 q 122 -60 122 -118 q 118 -39 122 -43 q 97 -35 113 -35 q 46 -15 67 -35 q 25 32 25 4 q 45 78 25 58 q 92 97 64 97 q 166 60 137 97 q 195 -36 195 22 q 148 -164 195 -108 q 25 -239 100 -221 z "},"‰":{"ha":1375,"x_min":40,"x_max":1335,"o":"m 211 404 q 282 454 256 404 q 309 591 309 504 q 282 729 309 679 q 211 779 256 779 q 139 729 165 779 q 114 586 114 679 q 140 453 114 502 q 211 404 166 404 m 382 591 q 333 432 382 495 q 211 368 284 368 q 89 432 137 368 q 40 591 40 495 q 89 752 40 688 q 211 815 137 815 q 333 752 285 815 q 382 591 382 688 m 745 815 l 791 815 l 214 0 l 167 0 l 745 815 m 1335 216 q 1286 57 1335 120 q 1164 -7 1237 -7 q 1041 57 1090 -7 q 993 216 993 120 q 1041 377 993 313 q 1164 440 1090 440 q 1286 377 1238 440 q 1335 216 1335 313 m 1164 29 q 1235 79 1208 29 q 1261 216 1261 129 q 1235 354 1261 304 q 1164 404 1208 404 q 1092 354 1118 404 q 1067 211 1067 304 q 1093 78 1067 127 q 1164 29 1119 29 m 920 216 q 871 57 920 121 q 749 -7 822 -7 q 626 56 675 -7 q 578 216 578 119 q 626 377 578 313 q 749 440 675 440 q 871 376 822 440 q 920 216 920 313 m 749 29 q 820 79 793 29 q 846 216 846 129 q 820 354 846 304 q 749 404 793 404 q 677 354 703 404 q 652 211 652 304 q 678 78 652 127 q 749 29 704 29 z "},"Â":{"ha":825,"x_min":31,"x_max":794,"o":"m 514 0 l 514 24 q 583 71 583 24 q 576 102 583 85 l 504 322 l 248 322 l 193 163 q 173 75 173 102 q 236 24 173 25 l 236 0 l 31 0 l 31 24 q 99 53 75 30 q 149 149 123 76 l 368 804 l 450 804 l 681 119 q 723 41 701 59 q 794 24 745 24 l 794 0 l 514 0 m 262 371 l 486 371 l 374 708 l 262 371 m 397 1120 l 432 1120 l 574 848 l 543 848 l 410 1028 l 281 848 l 254 848 l 397 1120 z "},"Ê":{"ha":708,"x_min":47,"x_max":657,"o":"m 551 494 l 575 494 l 575 301 l 551 301 q 520 365 538 352 q 440 378 502 378 l 243 378 l 243 93 q 256 51 243 63 q 301 39 269 39 l 440 39 q 543 47 515 39 q 591 77 572 55 q 633 149 611 99 l 657 149 l 621 0 l 47 0 l 47 24 q 119 51 101 24 q 138 149 138 79 l 138 646 q 119 745 138 718 q 47 772 100 772 l 47 795 l 621 795 l 621 663 l 606 663 q 571 738 593 720 q 472 757 548 757 l 243 757 l 243 416 l 465 416 q 527 433 511 416 q 551 494 544 449 m 338 1120 l 374 1120 l 515 848 l 484 848 l 351 1028 l 223 848 l 195 848 l 338 1120 z "},"Á":{"ha":825,"x_min":31,"x_max":794,"o":"m 514 0 l 514 24 q 583 71 583 24 q 576 102 583 85 l 504 322 l 248 322 l 193 163 q 173 75 173 102 q 236 24 173 25 l 236 0 l 31 0 l 31 24 q 99 53 75 30 q 149 149 123 76 l 368 804 l 450 804 l 681 119 q 723 41 701 59 q 794 24 745 24 l 794 0 l 514 0 m 262 371 l 486 371 l 374 708 l 262 371 m 354 842 l 444 1120 l 521 1120 l 380 842 l 354 842 z "},"Ë":{"ha":708,"x_min":47,"x_max":657,"o":"m 551 494 l 575 494 l 575 301 l 551 301 q 520 365 538 352 q 440 378 502 378 l 243 378 l 243 93 q 256 51 243 63 q 301 39 269 39 l 440 39 q 543 47 515 39 q 591 77 572 55 q 633 149 611 99 l 657 149 l 621 0 l 47 0 l 47 24 q 119 51 101 24 q 138 149 138 79 l 138 646 q 119 745 138 718 q 47 772 100 772 l 47 795 l 621 795 l 621 663 l 606 663 q 571 738 593 720 q 472 757 548 757 l 243 757 l 243 416 l 465 416 q 527 433 511 416 q 551 494 544 449 m 463 1036 q 504 1019 486 1036 q 521 978 521 1002 q 504 937 521 954 q 463 920 486 920 q 421 937 439 920 q 404 978 404 954 q 421 1019 404 1002 q 463 1036 439 1036 m 248 1036 q 289 1019 272 1036 q 307 978 307 1002 q 289 937 307 954 q 248 920 272 920 q 207 937 224 920 q 190 978 190 954 q 207 1019 190 1002 q 248 1036 224 1036 z "},"È":{"ha":708,"x_min":47,"x_max":657,"o":"m 551 494 l 575 494 l 575 301 l 551 301 q 520 365 538 352 q 440 378 502 378 l 243 378 l 243 93 q 256 51 243 63 q 301 39 269 39 l 440 39 q 543 47 515 39 q 591 77 572 55 q 633 149 611 99 l 657 149 l 621 0 l 47 0 l 47 24 q 119 51 101 24 q 138 149 138 79 l 138 646 q 119 745 138 718 q 47 772 100 772 l 47 795 l 621 795 l 621 663 l 606 663 q 571 738 593 720 q 472 757 548 757 l 243 757 l 243 416 l 465 416 q 527 433 511 416 q 551 494 544 449 m 247 1120 l 323 1120 l 414 842 l 387 842 l 247 1120 z "},"Í":{"ha":361,"x_min":37,"x_max":323,"o":"m 323 795 l 323 772 q 253 745 273 772 q 233 646 233 717 l 233 150 q 253 51 233 79 q 323 24 273 24 l 323 0 l 37 0 l 37 24 q 109 51 90 24 q 127 150 127 78 l 127 646 q 109 746 127 719 q 37 772 90 772 l 37 795 l 323 795 m 122 842 l 212 1120 l 289 1120 l 149 842 l 122 842 z "},"Î":{"ha":361,"x_min":37,"x_max":357,"o":"m 323 795 l 323 772 q 253 745 273 772 q 233 646 233 717 l 233 150 q 253 51 233 79 q 323 24 273 24 l 323 0 l 37 0 l 37 24 q 109 51 90 24 q 127 150 127 78 l 127 646 q 109 746 127 719 q 37 772 90 772 l 37 795 l 323 795 m 180 1120 l 216 1120 l 357 848 l 326 848 l 193 1028 l 65 848 l 37 848 l 180 1120 z "},"Ï":{"ha":361,"x_min":37,"x_max":368,"o":"m 323 795 l 323 772 q 253 745 273 772 q 233 646 233 717 l 233 150 q 253 51 233 79 q 323 24 273 24 l 323 0 l 37 0 l 37 24 q 109 51 90 24 q 127 150 127 78 l 127 646 q 109 746 127 719 q 37 772 90 772 l 37 795 l 323 795 m 310 1036 q 351 1019 334 1036 q 368 978 368 1002 q 351 937 368 954 q 310 920 334 920 q 269 937 286 920 q 252 978 252 954 q 269 1019 252 1002 q 310 1036 286 1036 m 96 1036 q 137 1019 119 1036 q 154 978 154 1002 q 137 937 154 954 q 96 920 119 920 q 55 937 72 920 q 37 978 37 954 q 55 1019 37 1002 q 96 1036 72 1036 z "},"Ì":{"ha":361,"x_min":37,"x_max":323,"o":"m 323 795 l 323 772 q 253 745 273 772 q 233 646 233 717 l 233 150 q 253 51 233 79 q 323 24 273 24 l 323 0 l 37 0 l 37 24 q 109 51 90 24 q 127 150 127 78 l 127 646 q 109 746 127 719 q 37 772 90 772 l 37 795 l 323 795 m 74 1120 l 151 1120 l 241 842 l 214 842 l 74 1120 z "},"Ó":{"ha":1013,"x_min":82,"x_max":930,"o":"m 82 401 q 204 697 82 578 q 509 815 326 815 q 808 695 686 815 q 930 401 930 575 q 807 102 930 224 q 505 -20 684 -20 q 205 102 328 -20 q 82 401 82 224 m 204 400 q 287 118 204 226 q 504 11 370 11 q 724 121 640 11 q 808 395 808 231 q 726 678 808 571 q 511 785 643 785 q 288 680 372 785 q 204 400 204 574 m 447 842 l 537 1120 l 614 1120 l 473 842 l 447 842 z "},"Ô":{"ha":1013,"x_min":82,"x_max":930,"o":"m 82 401 q 204 697 82 578 q 509 815 326 815 q 808 695 686 815 q 930 401 930 575 q 807 102 930 224 q 505 -20 684 -20 q 205 102 328 -20 q 82 401 82 224 m 204 400 q 287 118 204 226 q 504 11 370 11 q 724 121 640 11 q 808 395 808 231 q 726 678 808 571 q 511 785 643 785 q 288 680 372 785 q 204 400 204 574 m 490 1120 l 525 1120 l 667 848 l 635 848 l 503 1028 l 374 848 l 347 848 l 490 1120 z "},"Ò":{"ha":1013,"x_min":82,"x_max":930,"o":"m 82 401 q 204 697 82 578 q 509 815 326 815 q 808 695 686 815 q 930 401 930 575 q 807 102 930 224 q 505 -20 684 -20 q 205 102 328 -20 q 82 401 82 224 m 204 400 q 287 118 204 226 q 504 11 370 11 q 724 121 640 11 q 808 395 808 231 q 726 678 808 571 q 511 785 643 785 q 288 680 372 785 q 204 400 204 574 m 398 1120 l 475 1120 l 565 842 l 538 842 l 398 1120 z "},"Ú":{"ha":926,"x_min":52,"x_max":873,"o":"m 677 167 l 677 646 q 659 743 677 715 q 593 772 640 770 l 593 795 l 873 795 l 873 772 q 803 745 823 772 q 783 646 783 717 l 783 150 q 803 52 783 80 q 873 24 822 24 l 873 0 l 677 0 l 677 111 q 412 -20 566 -20 q 214 56 286 -20 q 142 254 142 131 l 142 646 q 123 745 142 717 q 52 772 104 772 l 52 795 l 339 795 l 339 772 q 267 745 286 772 q 248 647 248 718 l 248 244 q 301 91 248 146 q 450 35 355 35 q 677 167 592 35 m 404 842 l 494 1120 l 571 1120 l 431 842 l 404 842 z "},"Û":{"ha":926,"x_min":52,"x_max":873,"o":"m 677 167 l 677 646 q 659 743 677 715 q 593 772 640 770 l 593 795 l 873 795 l 873 772 q 803 745 823 772 q 783 646 783 717 l 783 150 q 803 52 783 80 q 873 24 822 24 l 873 0 l 677 0 l 677 111 q 412 -20 566 -20 q 214 56 286 -20 q 142 254 142 131 l 142 646 q 123 745 142 717 q 52 772 104 772 l 52 795 l 339 795 l 339 772 q 267 745 286 772 q 248 647 248 718 l 248 244 q 301 91 248 146 q 450 35 355 35 q 677 167 592 35 m 447 1120 l 482 1120 l 624 848 l 593 848 l 460 1028 l 332 848 l 304 848 l 447 1120 z "},"Ù":{"ha":926,"x_min":52,"x_max":873,"o":"m 677 167 l 677 646 q 659 743 677 715 q 593 772 640 770 l 593 795 l 873 795 l 873 772 q 803 745 823 772 q 783 646 783 717 l 783 150 q 803 52 783 80 q 873 24 822 24 l 873 0 l 677 0 l 677 111 q 412 -20 566 -20 q 214 56 286 -20 q 142 254 142 131 l 142 646 q 123 745 142 717 q 52 772 104 772 l 52 795 l 339 795 l 339 772 q 267 745 286 772 q 248 647 248 718 l 248 244 q 301 91 248 146 q 450 35 355 35 q 677 167 592 35 m 355 1120 l 432 1120 l 522 842 l 496 842 l 355 1120 z "},"ı":{"ha":318,"x_min":20,"x_max":289,"o":"m 20 0 l 20 24 q 96 37 79 24 q 113 92 113 50 l 113 393 q 97 452 113 438 q 20 467 81 467 l 20 490 l 183 505 l 207 505 l 207 92 q 224 37 207 51 q 289 24 242 24 l 289 0 l 20 0 z "},"ˆ":{"ha":463,"x_min":72,"x_max":392,"o":"m 215 872 l 250 872 l 392 600 l 361 600 l 228 781 l 100 600 l 72 600 l 215 872 z "},"˜":{"ha":463,"x_min":28,"x_max":435,"o":"m 54 650 l 28 650 q 63 732 28 696 q 142 768 98 768 q 252 735 178 768 q 357 704 322 704 q 392 720 378 704 q 410 764 406 736 l 435 764 q 402 680 434 715 q 326 646 370 646 q 205 680 277 646 q 111 714 134 714 q 54 650 68 714 z "},"ˉ":{"ha":463,"x_min":28,"x_max":435,"o":"m 28 677 l 28 737 l 435 737 l 435 677 l 28 677 z "},"˘":{"ha":463,"x_min":60,"x_max":404,"o":"m 376 814 l 404 814 l 404 803 q 353 665 404 718 q 233 612 302 612 q 112 666 164 612 q 60 799 60 720 q 60 814 60 806 l 88 814 q 231 697 117 697 q 376 814 347 697 z "},"˙":{"ha":463,"x_min":174,"x_max":290,"o":"m 232 789 q 273 771 256 789 q 290 730 290 754 q 273 689 290 707 q 232 672 256 672 q 191 689 208 672 q 174 730 174 707 q 191 771 174 754 q 232 789 208 789 z "},"˚":{"ha":463,"x_min":110,"x_max":354,"o":"m 232 804 q 169 778 195 804 q 143 715 143 752 q 169 653 143 679 q 232 627 195 627 q 295 653 269 627 q 321 715 321 679 q 295 778 321 752 q 232 804 269 804 m 232 838 q 318 802 283 838 q 354 715 354 766 q 318 628 354 664 q 232 593 283 593 q 145 628 181 593 q 110 715 110 664 q 145 802 110 766 q 232 838 181 838 z "},"¸":{"ha":463,"x_min":147,"x_max":345,"o":"m 250 11 l 273 11 l 250 -75 q 319 -111 293 -83 q 345 -176 345 -138 q 297 -261 345 -230 q 166 -292 250 -292 q 147 -292 157 -292 l 147 -265 q 273 -187 273 -263 q 207 -129 273 -145 l 250 11 z "},"˝":{"ha":463,"x_min":75,"x_max":385,"o":"m 218 595 l 309 872 l 385 872 l 244 595 l 218 595 m 75 595 l 165 872 l 241 872 l 102 595 l 75 595 z "},"˛":{"ha":463,"x_min":135,"x_max":406,"o":"m 387 -139 l 406 -157 q 248 -229 331 -229 q 165 -201 195 -229 q 135 -123 135 -173 q 195 9 135 -57 l 227 9 q 201 -86 201 -41 q 226 -147 201 -125 q 293 -170 250 -170 q 387 -139 340 -170 z "},"ˇ":{"ha":463,"x_min":72,"x_max":392,"o":"m 249 600 l 214 600 l 72 872 l 103 872 l 236 692 l 364 872 l 392 872 l 249 600 z "},"Ł":{"ha":694,"x_min":43,"x_max":685,"o":"m 661 174 l 685 174 l 636 0 l 60 0 l 60 24 q 129 54 109 24 q 150 157 150 85 l 150 269 l 43 168 l 43 224 l 150 325 l 150 657 q 131 747 150 722 q 60 772 111 772 l 60 795 l 345 795 l 345 772 q 276 743 297 772 q 256 647 256 714 l 256 408 l 472 615 l 472 559 l 256 351 l 256 115 q 274 55 256 71 q 346 39 293 39 l 504 39 q 606 64 577 39 q 661 174 635 90 z "},"ł":{"ha":334,"x_min":0,"x_max":334,"o":"m 32 24 l 57 24 q 109 43 95 24 q 122 117 122 63 l 122 364 l 0 216 l 0 265 l 122 411 l 122 765 q 107 818 122 803 q 56 832 92 832 l 24 832 l 24 856 l 193 872 l 216 872 l 216 511 l 334 652 l 334 603 l 216 463 l 216 93 q 233 38 216 53 q 293 24 249 24 l 306 24 l 306 0 l 32 0 l 32 24 z "},"Š":{"ha":579,"x_min":75,"x_max":538,"o":"m 472 807 l 494 807 l 494 621 l 471 621 q 415 741 463 698 q 294 785 367 785 q 191 752 230 785 q 151 665 151 720 q 184 574 151 615 q 325 467 216 532 q 494 336 451 392 q 538 207 538 279 q 471 47 538 113 q 311 -20 405 -20 q 173 10 257 -20 q 129 22 138 22 q 98 -8 109 22 l 75 -8 l 75 207 l 98 207 q 156 64 99 118 q 290 11 214 11 q 407 50 363 11 q 450 153 450 88 q 414 245 450 201 q 264 359 378 289 q 140 450 172 416 q 94 523 109 483 q 79 610 79 562 q 139 758 79 701 q 296 815 199 815 q 411 794 349 815 q 452 785 440 785 q 465 789 461 785 q 472 807 468 793 m 307 848 l 272 848 l 130 1120 l 161 1120 l 294 939 l 422 1120 l 450 1120 l 307 848 z "},"š":{"ha":435,"x_min":54,"x_max":390,"o":"m 364 505 l 364 354 l 336 354 q 296 445 330 411 q 214 478 262 478 q 155 460 177 478 q 132 411 132 441 q 153 358 132 381 q 243 304 174 336 q 361 226 332 263 q 390 136 390 189 q 344 30 390 75 q 235 -16 298 -16 q 149 8 202 -16 q 110 21 119 21 q 88 12 97 21 q 78 -12 79 2 l 54 -12 l 54 155 l 78 155 q 135 51 91 90 q 236 12 179 12 q 297 37 273 12 q 322 97 322 61 q 299 157 322 132 q 201 216 277 182 q 88 286 115 253 q 61 364 61 318 q 105 464 61 422 q 211 505 150 505 q 273 492 239 505 q 311 482 296 482 q 340 505 331 482 l 364 505 m 242 600 l 207 600 l 65 872 l 96 872 l 229 692 l 357 872 l 385 872 l 242 600 z "},"Ž":{"ha":782,"x_min":43,"x_max":739,"o":"m 715 192 l 739 192 l 710 0 l 43 0 l 43 21 l 567 757 l 224 757 q 115 737 149 757 q 65 660 82 717 l 43 660 l 56 795 l 703 795 l 703 771 l 182 39 l 482 39 q 635 74 581 39 q 715 192 689 110 m 408 848 l 373 848 l 231 1120 l 262 1120 l 395 939 l 524 1120 l 551 1120 l 408 848 z "},"ž":{"ha":507,"x_min":41,"x_max":479,"o":"m 54 490 l 467 490 l 467 467 l 154 24 l 307 24 q 419 54 385 24 q 456 150 454 83 l 479 150 l 467 0 l 41 0 l 41 24 l 354 467 l 216 467 q 113 434 153 467 q 65 347 72 402 l 41 347 l 54 490 m 260 600 l 224 600 l 83 872 l 114 872 l 247 692 l 375 872 l 403 872 l 260 600 z "},"¦":{"ha":689,"x_min":314,"x_max":375,"o":"m 314 -328 l 314 160 l 375 160 l 375 -328 l 314 -328 m 314 338 l 314 827 l 375 827 l 375 338 l 314 338 z "},"­":{"ha":435,"x_min":81,"x_max":353,"o":"m 81 271 l 353 271 l 353 218 l 81 218 l 81 271 z "},"¯":{"ha":694,"x_min":-10,"x_max":709,"o":"m -10 865 l -10 934 l 709 934 l 709 865 l -10 865 z "},"Ð":{"ha":926,"x_min":43,"x_max":860,"o":"m 134 150 l 134 371 l 43 371 l 43 410 l 134 410 l 134 646 q 114 745 134 717 q 43 772 94 772 l 43 795 l 419 795 q 646 743 546 795 q 803 594 746 690 q 860 385 860 498 q 743 105 860 210 q 418 0 625 0 l 43 0 l 43 24 q 114 52 94 24 q 134 150 134 80 m 484 374 l 239 374 l 239 178 q 260 56 239 87 q 340 24 281 24 l 422 24 q 653 120 569 24 q 737 383 737 216 q 645 665 737 558 q 390 772 553 772 l 239 772 l 239 412 l 484 412 l 484 374 z "},"ð":{"ha":643,"x_min":53,"x_max":595,"o":"m 154 244 q 199 75 154 138 q 321 12 244 12 q 444 76 399 12 q 488 254 488 140 q 443 418 488 358 q 321 478 398 478 q 198 416 243 478 q 154 244 154 353 m 530 871 l 546 848 l 419 765 q 549 547 503 675 q 595 294 595 418 q 521 67 595 150 q 319 -16 447 -16 q 129 58 205 -16 q 53 244 53 132 q 127 430 53 355 q 311 505 202 505 q 467 453 398 505 q 366 730 433 633 l 215 632 l 200 654 l 350 751 q 240 847 307 808 l 278 872 q 400 785 348 835 l 530 871 z "},"Ý":{"ha":782,"x_min":25,"x_max":747,"o":"m 621 682 l 441 400 l 441 150 q 460 51 441 77 q 529 24 479 24 l 529 0 l 239 0 l 239 24 q 317 52 298 24 q 336 150 336 81 l 336 400 l 167 664 q 98 750 125 730 q 25 772 72 770 l 25 795 l 336 795 l 336 772 q 254 735 254 772 q 271 693 254 718 l 428 452 l 554 652 q 582 728 582 696 q 529 772 582 772 l 529 795 l 747 795 l 747 772 q 679 753 703 770 q 621 682 655 736 m 332 842 l 422 1120 l 498 1120 l 358 842 l 332 842 z "},"ý":{"ha":579,"x_min":22,"x_max":562,"o":"m 258 490 l 258 467 q 216 424 216 460 q 224 392 216 410 l 342 114 l 428 374 q 438 425 438 406 q 389 467 438 464 l 389 490 l 562 490 l 562 467 q 497 440 523 467 q 450 351 471 413 l 254 -228 q 182 -359 226 -311 q 92 -407 138 -407 q 31 -386 64 -407 l 62 -301 q 110 -313 88 -313 q 183 -285 154 -313 q 235 -192 212 -257 l 298 -14 l 122 393 q 83 452 102 437 q 22 467 64 466 l 22 490 l 258 490 m 308 595 l 398 872 l 475 872 l 334 595 l 308 595 z "},"Þ":{"ha":694,"x_min":53,"x_max":652,"o":"m 53 0 l 53 24 q 124 52 104 24 q 143 147 143 81 l 143 646 q 124 745 143 718 q 53 772 104 772 l 53 795 l 339 795 l 339 772 q 268 744 288 772 q 249 648 249 715 l 249 614 l 343 614 q 569 550 486 614 q 652 387 652 487 q 579 235 652 288 q 371 182 506 182 q 249 191 318 182 l 249 150 q 268 51 249 78 q 339 24 288 24 l 339 0 l 53 0 m 347 583 l 249 583 l 249 227 q 347 212 289 212 q 489 258 437 212 q 541 385 541 304 q 489 527 541 471 q 347 583 437 583 z "},"þ":{"ha":636,"x_min":11,"x_max":586,"o":"m 98 -294 l 98 747 q 84 819 98 805 q 11 832 70 832 l 11 856 l 170 872 l 193 872 l 193 422 q 278 487 240 468 q 364 505 317 505 q 523 432 460 505 q 586 249 586 359 q 516 60 586 135 q 342 -16 447 -16 q 193 43 269 -16 l 193 -281 q 211 -347 193 -331 q 275 -363 228 -363 l 275 -386 l 12 -386 l 12 -363 q 81 -349 63 -363 q 98 -294 98 -334 m 193 386 l 193 78 q 329 17 251 17 q 439 79 395 17 q 484 232 484 140 q 439 395 484 331 q 326 460 395 460 q 193 386 257 460 z "},"−":{"ha":926,"x_min":98,"x_max":828,"o":"m 98 414 l 98 473 l 828 473 l 828 414 l 98 414 z "},"×":{"ha":928,"x_min":136,"x_max":791,"o":"m 136 729 l 178 771 l 464 485 l 750 771 l 791 729 l 505 443 l 791 157 l 750 115 l 464 401 l 178 115 l 136 157 l 422 443 l 136 729 z "},"¹":{"ha":419,"x_min":109,"x_max":292,"o":"m 292 406 l 292 375 l 131 375 l 131 406 q 171 410 163 406 q 178 437 178 414 l 178 707 q 170 728 178 728 q 157 724 167 728 q 109 714 131 716 l 109 741 q 225 814 201 780 l 243 814 l 243 440 q 250 411 243 417 q 292 406 257 406 z "},"²":{"ha":419,"x_min":61,"x_max":346,"o":"m 61 375 l 61 411 q 262 671 262 579 q 241 731 262 709 q 183 753 220 753 q 104 677 113 753 l 75 677 q 116 775 77 736 q 208 815 154 815 q 298 779 262 815 q 335 689 335 742 q 291 575 335 631 q 131 427 246 518 l 131 424 l 346 424 l 346 375 l 61 375 z "},"³":{"ha":419,"x_min":58,"x_max":349,"o":"m 163 585 l 111 585 l 111 615 q 257 710 257 628 q 236 754 257 735 q 186 772 216 772 q 145 762 161 772 q 107 724 128 752 l 83 733 q 205 815 113 815 q 293 786 258 815 q 328 711 328 756 q 262 618 328 651 l 262 615 q 349 504 349 581 q 305 406 349 444 q 193 368 262 368 q 124 380 152 368 q 58 424 96 391 l 79 441 q 176 407 132 407 q 245 430 218 407 q 273 485 273 452 q 244 557 273 530 q 163 585 216 585 z "},"½":{"ha":1042,"x_min":94,"x_max":953,"o":"m 277 411 l 277 380 l 117 380 l 117 411 q 156 415 149 411 q 163 443 163 420 l 163 712 q 155 733 163 733 q 142 730 153 733 q 94 720 117 722 l 94 746 q 211 819 186 785 l 229 819 l 229 446 q 236 417 229 422 q 277 411 243 411 m 773 815 l 820 815 l 237 0 l 195 0 l 773 815 m 668 -1 l 668 35 q 869 295 869 203 q 848 355 869 333 q 790 377 827 377 q 711 302 720 377 l 682 302 q 723 400 684 360 q 815 439 761 439 q 905 403 869 439 q 942 313 942 366 q 898 199 942 256 q 738 51 853 142 l 738 48 l 953 48 l 953 -1 l 668 -1 z "},"¼":{"ha":1042,"x_min":94,"x_max":961,"o":"m 277 406 l 277 375 l 117 375 l 117 406 q 156 410 149 406 q 163 437 163 414 l 163 707 q 155 728 163 728 q 142 724 153 728 q 94 714 117 716 l 94 741 q 211 814 186 780 l 229 814 l 229 440 q 236 411 229 417 q 277 406 243 406 m 769 815 l 816 815 l 233 0 l 191 0 l 769 815 m 822 441 l 846 441 l 846 176 l 961 176 l 961 134 l 846 134 l 846 0 l 779 0 l 779 134 l 586 134 l 586 164 l 822 441 m 646 176 l 779 176 l 779 334 l 646 176 z "},"¾":{"ha":1042,"x_min":94,"x_max":1014,"o":"m 199 585 l 147 585 l 147 615 q 293 710 293 628 q 272 754 293 735 q 222 772 252 772 q 181 762 197 772 q 143 724 164 752 l 119 733 q 241 815 149 815 q 329 786 294 815 q 363 711 363 756 q 298 618 363 651 l 298 615 q 385 504 385 581 q 341 406 385 444 q 229 368 298 368 q 160 380 188 368 q 94 424 132 391 l 115 441 q 212 407 168 407 q 281 430 254 407 q 309 485 309 452 q 280 557 309 530 q 199 585 252 585 m 822 815 l 869 815 l 286 0 l 244 0 l 822 815 m 875 441 l 899 441 l 899 176 l 1014 176 l 1014 134 l 899 134 l 899 0 l 832 0 l 832 134 l 639 134 l 639 164 l 875 441 m 699 176 l 832 176 l 832 334 l 699 176 z "},"":{"ha":419,"x_min":29,"x_max":404,"o":"m 265 813 l 289 813 l 289 548 l 404 548 l 404 505 l 289 505 l 289 372 l 222 372 l 222 505 l 29 505 l 29 536 l 265 813 m 89 548 l 222 548 l 222 705 l 89 548 z "},"¤":{"ha":942,"x_min":154,"x_max":787,"o":"m 196 761 l 279 677 q 471 746 368 746 q 663 677 576 746 l 746 761 l 787 720 l 704 636 q 772 444 772 557 q 754 339 772 391 q 704 253 736 288 l 787 170 l 746 127 l 661 212 q 471 143 587 143 q 279 211 366 143 l 196 127 l 154 170 l 237 253 q 170 444 170 335 q 237 636 170 551 l 154 720 l 196 761 m 471 685 q 301 615 371 685 q 231 444 231 545 q 301 274 231 345 q 471 204 371 204 q 641 274 571 204 q 711 444 711 345 q 641 615 711 545 q 471 685 571 685 z "}}}
